<ttFont>
<head>
    <!-- Most of this table will be recalculated by the compiler -->
    <tableVersion value="1.0"/>
    <fontRevision value="3.09999"/>
    <checkSumAdjustment value="0x306e60bd"/>
    <magicNumber value="0x5f0f3cf5"/>
    <flags value="00000000 00000011"/>
    <unitsPerEm value="1000"/>
    <created value="Thu Oct  5 21:20:00 2017"/>
    <modified value="Thu Oct  5 21:20:00 2017"/>
    <xMin value="-520"/>
    <yMin value="-553"/>
    <xMax value="2620"/>
    <yMax value="1040"/>
    <macStyle value="00000000 00000000"/>
    <lowestRecPPEM value="3"/>
    <fontDirectionHint value="2"/>
    <indexToLocFormat value="0"/>
    <glyphDataFormat value="0"/>
  </head>
          <CharString index="0">
            36 377 callgsubr
            88 115 106 54 81 107 99 -77 callgsubr
            return
          </CharString>
          <CharString index="1">
            -88 -75 -105 callgsubr
            134 return
          </CharString>
          <CharString index="2">
            27 317 512 rmoveto
            110 106 -70 -152 -7 hvcurveto
            -426 hlineto
            150 5 101 72 111 hhcurveto
            250 -334 rmoveto
            -47 hlineto
            -90 -18 -77 -57 -107 hhcurveto
            -112 -102 72 152 -4 hvcurveto
            469 hlineto
            2 18 0 12 24 vvcurveto
            125 -90 116 -163 -154 -110 -105 -173 -174 112 -106 152 139 89 79 107 21 vhcurveto
            return
          </CharString>
          <CharString index="3">
            20 15 15 20 20 -15 15 -20 -21 -15 -15 -20 -20 15 -15 21 hvcurveto
            return
          </CharString>
          <CharString index="4">
            rmoveto
            -92 141 callgsubr
            64 -83 callgsubr
            return
          </CharString>
          <CharString index="5">
            -101 callsubr
            174 return
          </CharString>
          <CharString index="6">
            3 0 5 -1 5 vhcurveto
            -39 -12 hlineto
            -73 callsubr
            return
          </CharString>
          <CharString index="7">
            75 54 272 rmoveto
            204 callsubr
            83 30 vhcurveto
            -143 45 -87 callsubr
            return
          </CharString>
          <CharString index="8">
            -48 -106 callsubr
            return
          </CharString>
          <CharString index="9">
            279 callsubr
            -108 -59 57 85 71 46 56 79 80 43 -56 -64 -5 0 -8 -1 -14 hvcurveto
            34 hlineto
            1 12 0 11 7 vvcurveto
            88 -59 64 -99 return
          </CharString>
          <CharString index="10">
            rmoveto
            -73 -53 273 callgsubr
            -101 -47 -57 -76 vhcurveto
            return
          </CharString>
          <CharString index="11">
            -18 callsubr
            -86 -59 133 callgsubr
            return
          </CharString>
          <CharString index="12">
            186 callgsubr
            103 50 -84 -103 return
          </CharString>
          <CharString index="13">
            74 129 57 18 46 29 35 hvcurveto
            307 -286 rlineto
            -33 -33 -48 -22 -63 hhcurveto
            return
          </CharString>
          <CharString index="14">
            30 hlineto
            32 4 16 15 23 41 16 -49 53 hhcurveto
            40 31 31 48 4 hvcurveto
            -30 hlineto
            -31 -4 -18 -15 -22 -45 -14 49 -51 hhcurveto
            -40 -27 -30 -50 -7 hvcurveto
            return
          </CharString>
          <CharString index="15">
            hhcurveto
            -152 -110 -106 -172 hvcurveto
            492 hmoveto
            -147 -97 -93 -127 -131 -91 90 150 150 91 89 131 127 97 -94 -145 vhcurveto
            return
          </CharString>
          <CharString index="16">
            -48 90 callsubr
            105 return
          </CharString>
          <CharString index="17">
            90 87 63 -60 -86 -86 -63 -61 -87 hvcurveto
            return
          </CharString>
          <CharString index="18">
            -85 callgsubr
            vlineto
            return
          </CharString>
          <CharString index="19">
            -39 hlineto
            -130 -90 -92 -130 193 callsubr
            153 109 72 141 vhcurveto
            79 174 236 35 return
          </CharString>
          <CharString index="20">
            543 -45 -142 vlineto
            82 -30 -80 67 -120 -92 callsubr
            return
          </CharString>
          <CharString index="21">
            -51 callgsubr
            134 53 87 105 103 50 -84 -103 return
          </CharString>
          <CharString index="22">
            47 78 702 rmoveto
            -438 vlineto
            -190 106 -81 140 140 103 81 190 vhcurveto
            438 -45 -438 vlineto
            -167 -82 -64 -116 -116 -85 64 167 vhcurveto
            438 vlineto
            return
          </CharString>
          <CharString index="23">
            -143 -85 -80 callsubr
            return
          </CharString>
          <CharString index="24">
            -118 -74 74 112 hvcurveto
            143 13 -20 callgsubr
            return
          </CharString>
          <CharString index="25">
            rmoveto
            -106 callgsubr
            endchar
          </CharString>
          <CharString index="26">
            rmoveto
            -39 hlineto
            -54 -15 -56 -63 -103 hhcurveto
            -122 -61 82 97 96 61 85 122 106 55 -65 -53 13 hvcurveto
            39 hlineto
            72 -15 -64 80 -133 -10 callsubr
            return
          </CharString>
          <CharString index="27">
            59 callgsubr
            128 89 47 -67 callsubr
            return
          </CharString>
          <CharString index="28">
            hhcurveto
            83 58 42 64 28 hvcurveto
            -75 callgsubr
            return
          </CharString>
          <CharString index="29">
            -121 -55 78 128 hvcurveto
            245 347 -274 vlineto
            -96 -61 -81 -110 vhcurveto
            return
          </CharString>
          <CharString index="30">
            233 -63 callsubr
            return
          </CharString>
          <CharString index="31">
            156 callgsubr
            -204 -60 callgsubr
            -102 callsubr
            return
          </CharString>
          <CharString index="32">
            41 -98 callgsubr
            return
          </CharString>
          <CharString index="33">
            rmoveto
            9 -32 vlineto
            -54 -32 -31 -62 -63 -32 31 54 vhcurveto
            -32 -9 hlineto
            -57 39 -56 88 87 39 56 57 vhcurveto
            return
          </CharString>
          <CharString index="34">
            146 callgsubr
            -100 -46 74 103 vhcurveto
            return
          </CharString>
          <CharString index="35">
            rmoveto
            90 68 42 73 76 66 -49 -83 -73 -45 -43 -57 -35 vhcurveto
            -101 2 -80 55 94 vvcurveto
            251 -631 rmoveto
            38 256 -35 hlineto
            -78 -52 -64 -87 -86 -49 59 73 112 107 37 95 52 vhcurveto
            return
          </CharString>
          <CharString index="36">
            300 -69 callsubr
            return
          </CharString>
          <CharString index="37">
            -1 callgsubr
            -204 -60 callgsubr
            return
          </CharString>
          <CharString index="38">
            -9 rmoveto
            -106 callgsubr
            return
          </CharString>
          <CharString index="39">
            978 410 rmoveto
            -71 hlineto
            96 -17 -76 67 -103 hhcurveto
            -102 -55 -56 -68 -24 hvcurveto
            256 636 -105 vlineto
            -53 callsubr
            -672 -258 -107 callgsubr
            899 448 rmoveto
            105 return
          </CharString>
          <CharString index="40">
            148 -55 callgsubr
            return
          </CharString>
          <CharString index="41">
            -42 callgsubr
            147 return
          </CharString>
          <CharString index="42">
            -217 250 408 -82 hlineto
            -136 -85 -32 -106 vhcurveto
            242 -291 96 callgsubr
            125 92 62 callsubr
            return
          </CharString>
          <CharString index="43">
            rmoveto
            -103 -68 67 102 104 68 67 103 104 69 -67 -104 -102 -69 -67 -104 hvcurveto
            -271 -150 rmoveto
            -83 callsubr
            return
          </CharString>
          <CharString index="44">
            -27 callgsubr
            -101 -81 -121 vhcurveto
            return
          </CharString>
          <CharString index="45">
            rmoveto
            -73 -53 50 77 78 56 50 81 236 callgsubr
            -101 -47 -57 -76 vhcurveto
            -35 vmoveto
            182 callgsubr
            return
          </CharString>
          <CharString index="46">
            33 hlineto
            -2 6 -1 8 7 vvcurveto
            68 54 43 61 73 53 -55 -75 -92 -80 -66 -110 -146 -104 98 142 168 115 78 151 vhcurveto
            return
          </CharString>
          <CharString index="47">
            151 35 return
          </CharString>
          <CharString index="48">
            rmoveto
            -128 -82 -129 82 rlineto
            -38 vlineto
            129 -82 128 82 rlineto
            endchar
          </CharString>
          <CharString index="49">
            335 callsubr
            -164 290 callgsubr
            -52 callsubr
            return
          </CharString>
          <CharString index="50">
            -12 hvcurveto
            -51 callgsubr
            return
          </CharString>
          <CharString index="51">
            172 54 350 rmoveto
            -209 143 -148 192 163 109 82 131 50 vhcurveto
            -52 hlineto
            -101 -39 -91 -71 -140 hhcurveto
            -161 -128 121 195 198 128 120 161 140 91 -71 -101 39 hvcurveto
            52 hlineto
            131 -50 -109 82 -163 hhcurveto
            -192 -143 -148 -211 hvcurveto
            return
          </CharString>
          <CharString index="52">
            rmoveto
            125 82 72 112 30 hvcurveto
            -102 35 84 -62 124 hhcurveto
            123 367 callsubr
            -11 callsubr
            -673 -35 207 -82 vlineto
            -139 -84 -34 -113 vhcurveto
            -16 hlineto
            -2 -12 -1 -15 -12 vvcurveto
            -6 vlineto
            0 vlineto
            -153 4 -81 -107 -139 141 callsubr
            return
          </CharString>
          <CharString index="53">
            -148 66 -92 133 83 58 42 64 28 vhcurveto
            -325 return
          </CharString>
          <CharString index="54">
            -116 -70 -74 -118 vhcurveto
            return
          </CharString>
          <CharString index="55">
            323 callgsubr
            63 callgsubr
            hvcurveto
            -61 callsubr
            return
          </CharString>
          <CharString index="56">
            -36 -35 36 hlineto
            123 45 -83 -72 -93 -64 -64 -101 -99 -74 66 96 hvcurveto
            -38 hlineto
            -118 91 -80 123 121 79 76 115 47 -16 45 -31 33 vhcurveto
            212 -1 rlineto
            -365 return
          </CharString>
          <CharString index="57">
            -82 -51 62 87 hvcurveto
            315 265 -315 vlineto
            -87 -49 -62 -83 vhcurveto
            return
          </CharString>
          <CharString index="58">
            151 76 104 135 121 -60 89 -106 12 hvcurveto
            152 277 35 return
          </CharString>
          <CharString index="59">
            0 callsubr
            vhcurveto
            endchar
          </CharString>
          <CharString index="60">
            -35 callsubr
            42 305 callsubr
            return
          </CharString>
          <CharString index="61">
            29 547 hmoveto
            49 hlineto
            -257 686 rlineto
            -50 hlineto
            -258 -686 rlineto
            49 hlineto
            67 180 rlineto
            333 hlineto
            return
          </CharString>
          <CharString index="62">
            331 31 702 rmoveto
            191 -702 rlineto
            49 hlineto
            193 631 192 -631 rlineto
            49 hlineto
            194 702 rlineto
            -51 hlineto
            -167 -636 -189 636 rlineto
            -52 hlineto
            -192 -637 -167 637 rlineto
            return
          </CharString>
          <CharString index="63">
            rmoveto
            38 vlineto
            -128 82 -129 -82 rlineto
            -38 vlineto
            129 82 rlineto
            return
          </CharString>
          <CharString index="64">
            160 705 rmoveto
            -60 callsubr
            -152 return
          </CharString>
          <CharString index="65">
            rmoveto
            -83 callsubr
            436 324 callsubr
            -55 48 -91 hhcurveto
            -111 -89 124 callgsubr
            -27 -61 -61 -96 hhcurveto
            return
          </CharString>
          <CharString index="66">
            23 54 272 rmoveto
            -174 110 -106 153 138 90 78 111 21 vhcurveto
            -47 hlineto
            -94 -18 -78 -56 -106 hhcurveto
            -116 -101 77 164 163 101 77 116 106 78 -57 -93 18 hvcurveto
            47 hlineto
            113 -21 -90 75 -138 hhcurveto
            -153 -110 -105 -173 hvcurveto
            return
          </CharString>
          <CharString index="67">
            rmoveto
            -106 -80 75 110 116 79 75 106 112 72 -79 -112 -107 -73 -78 -110 hvcurveto
            408 hmoveto
            -109 -74 78 107 112 73 79 111 107 78 -75 -116 -110 -79 -75 -107 hvcurveto
            return
          </CharString>
          <CharString index="68">
            -47 90 callsubr
            return
          </CharString>
          <CharString index="69">
            241 callgsubr
            -81 -50 63 89 vhcurveto
            return
          </CharString>
          <CharString index="70">
            vhcurveto
            -151 82 callgsubr
            41 hlineto
            endchar
          </CharString>
          <CharString index="71">
            hhcurveto
            -36 -30 36 hlineto
            97 44 -10 -204 110 hvcurveto
            96 -108 -42 3 -102 hhcurveto
            -35 -29 36 hlineto
            return
          </CharString>
          <CharString index="72">
            110 callgsubr
            91 return
          </CharString>
          <CharString index="73">
            rmoveto
            21 17 17 21 21 -17 17 -21 -21 -17 -17 -21 -21 17 -17 21 hvcurveto
            endchar
          </CharString>
          <CharString index="74">
            -29 callsubr
            -54 callsubr
            40 277 callgsubr
            132 return
          </CharString>
          <CharString index="75">
            -57 callgsubr
            -100 vhcurveto
            9 callgsubr
          </CharString>
          <CharString index="76">
            73 127 122 90 74 return
          </CharString>
          <CharString index="77">
            40 -98 callgsubr
            return
          </CharString>
          <CharString index="78">
            301 254 -93 callgsubr
            -333 451 rmoveto
            265 callsubr
            hlineto
            return
          </CharString>
          <CharString index="79">
            -257 vlineto
            11 callgsubr
            return
          </CharString>
          <CharString index="80">
            vvcurveto
            104 -82 60 -95 -97 -83 -58 -110 -104 81 -61 94 -12 vhcurveto
            -94 -50 -105 -44 -121 vvcurveto
            -91 65 -69 102 94 44 59 29 8 vhcurveto
            return
          </CharString>
          <CharString index="81">
            176 callgsubr
            -101 -46 -57 -77 vhcurveto
            -601 -124 rmoveto
            -83 callsubr
            728 -257 -112 vlineto
            -59 -48 -20 -37 -31 hvcurveto
            104 -14 -78 63 -112 272 callgsubr
            271 116 rmoveto
            78 62 31 55 35 hvcurveto
            -69 18 57 -44 82 hhcurveto
            100 163 callgsubr
            hvcurveto
            95 214 287 callgsubr
            -1527 16 callsubr
          </CharString>
          <CharString index="82">
            -11 callgsubr
            79 136 145 72 70 131 121 26 -54 -26 7 hvcurveto
            -19 vlineto
            -160 94 -104 168 191 callsubr
            return
          </CharString>
          <CharString index="83">
            253 -14 callsubr
            return
          </CharString>
          <CharString index="84">
            74 -12 208 callgsubr
            return
          </CharString>
          <CharString index="85">
            rmoveto
            449 -148 -139 103 callgsubr
            165 179 155 35 -643 hlineto
            return
          </CharString>
          <CharString index="86">
            -35 372 -17 callgsubr
            return
          </CharString>
          <CharString index="87">
            -170 -115 -76 -173 10 callgsubr
            return
          </CharString>
          <CharString index="88">
            -66 callsubr
            83 67 130 129 48 -79 -51 hvcurveto
            -129 vlineto
            252 callgsubr
            125 224 callgsubr
            return
          </CharString>
          <CharString index="89">
            -12 callsubr
            143 59 75 callsubr
            return
          </CharString>
          <CharString index="90">
            rmoveto
            20 14 14 20 20 -14 14 -20 -21 -14 -14 -20 -20 14 -14 21 hvcurveto
            return
          </CharString>
          <CharString index="91">
            rmoveto
            42 hlineto
            -119 186 rlineto
            -41 hlineto
            return
          </CharString>
          <CharString index="92">
            -78 -126 -92 47 -67 76 -29 hvcurveto
            -70 -27 -61 -61 -97 hhcurveto
            return
          </CharString>
          <CharString index="93">
            159 -62 callsubr
            return
          </CharString>
          <CharString index="94">
            48 hlineto
            111 61 -51 -84 -63 -43 -58 -103 -119 -59 68 74 -12 hvcurveto
            -36 -245 38 return
          </CharString>
          <CharString index="95">
            -112 -86 -31 callsubr
            108 return
          </CharString>
          <CharString index="96">
            40 -34 callgsubr
            return
          </CharString>
          <CharString index="97">
            hhcurveto
            354 callgsubr
            74 63 25 70 vhcurveto
            189 176 149 35 return
          </CharString>
          <CharString index="98">
            98 52 callgsubr
            -100 -17 return
          </CharString>
          <CharString index="99">
            902 1381 160 callgsubr
            -1564 -35 1373 -199 -274 -170 vlineto
            -88 -51 -63 -85 -82 -50 62 94 vhcurveto
            15 vlineto
            114 -65 84 -112 -112 -47 -88 -75 -12 vhcurveto
            -51 callgsubr
            134 51 87 99 96 46 -73 -106 1 vhcurveto
            -113 1 63 -77 106 hhcurveto
            110 67 320 callsubr
            234 -470 vlineto
            return
          </CharString>
          <CharString index="100">
            -116 -70 375 callgsubr
            -82 hlineto
            57 -25 -63 52 -113 hhcurveto
            -150 -102 -78 -172 -161 99 -89 161 hvcurveto
            -19 callsubr
            return
          </CharString>
          <CharString index="101">
            hhcurveto
            -100 89 callgsubr
            return
          </CharString>
          <CharString index="102">
            778 396 211 callsubr
            795 -83 vlineto
            -132 -79 -35 -121 1 vhcurveto
            69 -30 -60 32 -64 hhcurveto
            380 callsubr
            hvcurveto
            228 callgsubr
            598 97 rmoveto
            -137 -80 84 142 -16 hvcurveto
            0 vlineto
            -2 12 -2 11 -2 10 rrcurveto
            139 -2 88 52 145 vvcurveto
            87 81 callgsubr
            -103 -81 -119 vhcurveto
            return
          </CharString>
          <CharString index="103">
            278 callgsubr
            hlineto
            -57 callgsubr
            return
          </CharString>
          <CharString index="104">
            rmoveto
            240 callgsubr
            hvcurveto
            2 0 3 2 vvcurveto
            128 89 55 148 hvcurveto
            29 callgsubr
            return
          </CharString>
          <CharString index="105">
            46 hlineto
            160 161 140 callsubr
            return
          </CharString>
          <CharString index="106">
            939 1017 hmoveto
            -104 callgsubr
            -1601 108 callsubr
            return
          </CharString>
          <CharString index="107">
            252 callgsubr
            124 67 callsubr
            return
          </CharString>
          <CharString index="108">
            rmoveto
            154 callsubr
            106 callsubr
            hvcurveto
            33 callsubr
            -672 hlineto
            return
          </CharString>
          <CharString index="109">
            rmoveto
            -315 44 318 vlineto
            163 -98 73 -121 -90 -78 -42 -84 -32 vhcurveto
            115 -45 -543 45 293 vlineto
            122 callgsubr
            return
          </CharString>
          <CharString index="110">
            311 callgsubr
            -139 92 -85 139 290 callsubr
            -164 -150 rlineto
            -3 45 vlineto
            211 196 35 28 return
          </CharString>
          <CharString index="111">
            -108 63 -79 109 111 62 78 109 vhcurveto
            312 return
          </CharString>
          <CharString index="112">
            161 188 callsubr
            vhcurveto
            41 hlineto
            138 -94 88 -118 -104 -60 -59 -70 -26 vhcurveto
            259 402 35 -964 278 callgsubr
            vlineto
            349 callsubr
            return
          </CharString>
          <CharString index="113">
            65 -65 120 callsubr
            return
          </CharString>
          <CharString index="114">
            rmoveto
            -144 -84 86 140 hvcurveto
            32 vlineto
            125 92 48 -67 callsubr
            return
          </CharString>
          <CharString index="115">
            -240 -229 rlineto
            48 hlineto
            275 267 20 16 16 21 11 25 rlinecurve
            return
          </CharString>
          <CharString index="116">
            rmoveto
            335 callsubr
            -145 97 -101 136 -22 hvcurveto
            -167 -167 176 callsubr
            -163 164 rlineto
            122 9 79 75 105 vvcurveto
            63 callgsubr
            vhcurveto
            146 callsubr
            endchar
          </CharString>
          <CharString index="117">
            -71 -66 27 76 89 86 17 70 hvcurveto
            171 179 return
          </CharString>
          <CharString index="118">
            -35 553 -255 vlineto
            68 -27 -62 57 -105 hhcurveto
            -122 -96 -86 -140 239 callgsubr
            15 hvcurveto
            -186 -169 rlineto
            47 hlineto
            237 216 rlineto
            0 vlineto
            23 21 17 26 11 27 rrcurveto
            -186 -92 rmoveto
            -104 -81 71 126 119 84 72 101 133 53 -104 -91 -56 -23 -66 -54 -39 hvcurveto
            -3 2 -13 -12 rlineto
            -14 -25 -31 -8 -37 hhcurveto
            -249 -119 -17 callsubr
            endchar
          </CharString>
          <CharString index="119">
            -11 520 28 rmoveto
            -37 hlineto
            -53 -16 -56 -63 -102 hhcurveto
            -124 -62 88 104 102 66 90 116 78 50 -39 -39 24 hvcurveto
            -133 -129 rlineto
            42 hlineto
            130 127 rlineto
            58 -24 -66 55 -102 hhcurveto
            -19 -19 -2 -4 -17 hvcurveto
            -54 12 -47 35 60 vvcurveto
            74 63 25 70 vhcurveto
            189 176 149 35 -651 137 callsubr
            -71 51 -39 49 -16 hvcurveto
            -80 -35 -44 -80 -89 vvcurveto
            -122 74 -106 149 129 68 80 71 16 vhcurveto
            return
          </CharString>
          <CharString index="120">
            -89 -52 -63 -84 -82 -50 63 88 vhcurveto
            1 vlineto
            3 0 4 3 vvcurveto
            108 -76 130 -168 -41 callgsubr
            111 78 60 81 34 vhcurveto
            -62 23 52 -40 76 hhcurveto
            111 64 78 110 hvcurveto
            return
          </CharString>
          <CharString index="121">
            rmoveto
            -84 callsubr
            414 360 callgsubr
            return
          </CharString>
          <CharString index="122">
            -520 729 rmoveto
            38 20 hlineto
            109 55 100 248 249 50 -100 -109 vhcurveto
            -9 318 callsubr
            -75 callsubr
            -151 return
          </CharString>
          <CharString index="123">
            -35 314 -147 vlineto
            -79 callgsubr
            17 -2 18 hhcurveto
            endchar
          </CharString>
          <CharString index="124">
            173 callsubr
            1 -100 67 -76 125 -14 135 callgsubr
            -163 164 rlineto
            110 12 54 66 82 vvcurveto
            127 -104 39 -100 vhcurveto
            244 callsubr
          </CharString>
          <CharString index="125">
            40 574 rmoveto
            -80 57 -55 77 77 57 55 80 80 -57 56 -77 -77 -57 -56 -80 vhcurveto
            134 104 rmoveto
            56 39 -41 -63 -62 -39 -42 -56 -57 -38 42 62 63 38 41 57 hvcurveto
            301 24 rmoveto
            -417 -702 rlineto
            47 hlineto
            416 702 rlineto
            -248 -575 rmoveto
            -80 57 -56 77 76 57 56 80 80 -57 56 -76 -77 -57 -56 -80 vhcurveto
            133 104 rmoveto
            57 39 -41 -63 -63 -39 -41 -57 -56 -39 41 63 63 39 41 56 hvcurveto
            return
          </CharString>
          <CharString index="126">
            rmoveto
            126 56 82 74 hvcurveto
            -36 hlineto
            -57 -44 -66 -102 -103 -44 66 57 vhcurveto
            -36 hlineto
            -74 55 -82 128 vhcurveto
            endchar
          </CharString>
          <CharString index="127">
            rmoveto
            105 519 -139 -41 vlineto
            -126 -103 -50 -104 -41 hvcurveto
            261 callgsubr
            40 -412 rmoveto
            -102 callsubr
            489 vlineto
            -5 -22 -3 -25 -26 vvcurveto
            95 callsubr
            vhcurveto
            -88 callsubr
            return
          </CharString>
          <CharString index="128">
            81 339 93 -63 callgsubr
            162 -199 rmoveto
            45 hlineto
            -165 166 rlineto
            127 17 91 96 134 vvcurveto
            142 -104 98 -136 8 vhcurveto
            150 351 35 -742 -35 351 -150 vlineto
            249 callgsubr
            -135 92 -96 128 -17 vhcurveto
            -165 -165 rlineto
            46 hlineto
            160 161 rlineto
            return
          </CharString>
          <CharString index="129">
            -35 314 -147 hlineto
            -79 callgsubr
            16 -2 18 hhcurveto
            return
          </CharString>
          <CharString index="130">
            217 159 -97 callsubr
            506 hmoveto
            -73 -53 50 77 78 56 50 81 236 callgsubr
            -101 -47 -57 -76 vhcurveto
            -144 427 rmoveto
            -14 2 -15 2 -14 vhcurveto
            40 hlineto
            -3 15 -1 14 13 vvcurveto
            81 47 47 66 79 35 -62 -98 vhcurveto
            -105 -468 257 243 vlineto
            289 callsubr
            144 -462 rmoveto
            182 callgsubr
            return
          </CharString>
          <CharString index="131">
            -30 callsubr
            -1429 -35 314 -147 hlineto
            -79 callgsubr
            17 -2 18 hhcurveto
            88 68 40 70 31 hvcurveto
            -93 31 81 -53 102 hhcurveto
            110 68 57 71 30 hvcurveto
            -201 -94 209 callsubr
            return
          </CharString>
          <CharString index="132">
            194 callsubr
            endchar
          </CharString>
          <CharString index="133">
            rmoveto
            154 callsubr
            -137 87 -89 137 325 callsubr
            hvcurveto
            -188 -171 rlineto
            48 hlineto
            236 216 15 13 13 16 8 18 rlinecurve
            148 callgsubr
            -672 hlineto
            endchar
          </CharString>
          <CharString index="134">
            22 134 186 rmoveto
            -43 hlineto
            -110 13 68 -82 131 hhcurveto
            187 61 144 230 195 -45 157 -210 -164 -67 -110 -123 -151 88 -90 144 103 89 54 90 21 hvcurveto
            -263 9 -79 -94 -135 hhcurveto
            -101 -57 58 95 -13 hvcurveto
            168 98 rmoveto
            -122 -72 74 129 121 75 74 113 145 61 -103 -108 -125 -102 -62 -98 hvcurveto
            endchar
          </CharString>
          <CharString index="135">
            -312 77 callsubr
            return
          </CharString>
          <CharString index="136">
            -97 6 callsubr
            return
          </CharString>
          <CharString index="137">
            23 491 532 rmoveto
            43 hlineto
            109 -14 -68 80 -129 hhcurveto
            -185 -67 -145 -226 -192 43 -163 217 164 66 113 121 151 -86 92 -144 -106 -91 -56 -94 -22 hvcurveto
            264 -9 81 97 139 hhcurveto
            100 54 -57 -94 14 hvcurveto
            -167 -99 rmoveto
            121 72 -73 -132 -122 -75 -73 -113 -148 -61 105 107 129 107 59 97 hvcurveto
            endchar
          </CharString>
          <CharString index="138">
            156 callgsubr
            -204 hlineto
            -48 callsubr
          </CharString>
          <CharString index="139">
            155 callsubr
            -73 145 callsubr
            return
          </CharString>
          <CharString index="140">
            -221 40 -64 callgsubr
            return
          </CharString>
          <CharString index="141">
            vlineto
            85 -32 -84 64 -114 61 callgsubr
          </CharString>
          <CharString index="142">
            149 111 102 148 142 -104 98 -136 8 hvcurveto
            150 351 35 return
          </CharString>
          <CharString index="143">
            -35 524 -257 vlineto
            -57 callgsubr
            return
          </CharString>
          <CharString index="144">
            rmoveto
            -115 -52 78 128 hvcurveto
            245 853 80 callgsubr
            -105 -68 -64 -101 -19 hvcurveto
            0 vlineto
            -76 -13 -54 -59 -91 hhcurveto
            return
          </CharString>
          <CharString index="145">
            rmoveto
            -93 221 callgsubr
            90 140 callgsubr
            return
          </CharString>
          <CharString index="146">
            98 -88 133 111 69 59 72 29 return
          </CharString>
          <CharString index="147">
            -139 133 callsubr
            return
          </CharString>
          <CharString index="148">
            149 rmoveto
            -96 callsubr
            return
          </CharString>
          <CharString index="149">
            254 rmoveto
            47 callgsubr
            return
          </CharString>
          <CharString index="150">
            hhcurveto
            51 callgsubr
            return
          </CharString>
          <CharString index="151">
            -10 1 1 -11 vhcurveto
            -36 vlineto
            -1 return
          </CharString>
          <CharString index="152">
            -62 callsubr
            153 -3 vlineto
            168 callgsubr
            322 callgsubr
            vhcurveto
            200 callsubr
            -20 -19 -3 -6 -17 vhcurveto
            return
          </CharString>
          <CharString index="153">
            -103 58 -133 hhcurveto
            -62 105 callsubr
            70 -35 53 -46 26 hvcurveto
            return
          </CharString>
          <CharString index="154">
            -36 hlineto
            -111 -89 -77 -135 -96 -83 42 96 160 callsubr
            -97 -64 -68 -90 -7 callgsubr
            -114 94 -57 123 vhcurveto
            endchar
          </CharString>
          <CharString index="155">
            58 177 callsubr
            -58 -110 return
          </CharString>
          <CharString index="156">
            76 102 callsubr
            return
          </CharString>
          <CharString index="157">
            rmoveto
            -59 43 -36 52 52 43 36 59 60 -43 36 -52 -52 -43 -36 -60 vhcurveto
            160 1 rmoveto
            -41 -28 -26 -37 -37 -28 26 41 41 28 25 37 37 28 -25 -41 vhcurveto
            endchar
          </CharString>
          <CharString index="158">
            75 104 vhcurveto
            133 120 vlineto
            return
          </CharString>
          <CharString index="159">
            57 118 callgsubr
            return
          </CharString>
          <CharString index="160">
            348 254 -93 callgsubr
            -380 451 rmoveto
            174 379 callsubr
            14 1 2 12 vhcurveto
            -237 -227 rlineto
            47 hlineto
            270 263 21 17 17 23 11 26 rlinecurve
            -325 41 277 callgsubr
            131 return
          </CharString>
          <CharString index="161">
            -29 callsubr
            -147 66 -92 133 14 13 1 2 12 vhcurveto
            -237 -227 rlineto
            48 hlineto
            272 265 20 17 16 22 11 25 rlinecurve
            166 callsubr
            return
          </CharString>
          <CharString index="162">
            38 callgsubr
            318 callsubr
            hlineto
            return
          </CharString>
          <CharString index="163">
            -388 82 702 rmoveto
            -702 45 702 vlineto
            return
          </CharString>
          <CharString index="164">
            233 84 callsubr
            return
          </CharString>
          <CharString index="165">
            108 77 96 callsubr
            return
          </CharString>
          <CharString index="166">
            hlineto
            52 callsubr
            return
          </CharString>
          <CharString index="167">
            142 -84 64 -91 380 callsubr
            vhcurveto
            35 hlineto
            -12 37 -7 35 30 vvcurveto
            103 73 34 57 67 71 -54 -120 -176 -143 -108 -188 -161 -114 62 123 83 55 69 134 vhcurveto
            23 35 -23 hlineto
            -115 -47 50 93 hvcurveto
            123 697 35 -877 vlineto
            endchar
          </CharString>
          <CharString index="168">
            7 510 711 rmoveto
            -427 -384 42 hlineto
            64 35 68 41 86 hhcurveto
            125 66 -74 -118 -117 -61 -88 -134 -99 -75 54 104 -21 hvcurveto
            -44 hlineto
            -121 19 89 -77 131 hhcurveto
            169 69 116 130 114 -60 116 -170 -83 -74 -37 -50 -35 hvcurveto
            287 384 vlineto
            endchar
          </CharString>
          <CharString index="169">
            47 148 hvcurveto
            87 57 callsubr
            return
          </CharString>
          <CharString index="170">
            108 callgsubr
            67 208 callsubr
            return
          </CharString>
          <CharString index="171">
            rmoveto
            -215 257 215 hlineto
            return
          </CharString>
          <CharString index="172">
            399 -18 callgsubr
            147 207 rmoveto
            -16 1 -16 2 -15 vhcurveto
            -319 292 rlineto
            316 227 callsubr
            return
          </CharString>
          <CharString index="173">
            141 rmoveto
            -112 -98 -94 callsubr
            return
          </CharString>
          <CharString index="174">
            114 71 77 120 return
          </CharString>
          <CharString index="175">
            rmoveto
            -92 callgsubr
            return
          </CharString>
          <CharString index="176">
            175 callgsubr
            41 705 151 35 return
          </CharString>
          <CharString index="177">
            111 69 59 72 29 hvcurveto
            -246 39 388 callgsubr
          </CharString>
          <CharString index="178">
            216 callsubr
            -95 -81 -48 -82 -35 hvcurveto
            79 -31 -67 46 -85 hhcurveto
            129 callsubr
            256 vlineto
            975 hmoveto
            35 return
          </CharString>
          <CharString index="179">
            -107 callgsubr
            224 return
          </CharString>
          <CharString index="180">
            42 vlineto
            59 21 -23 -32 -37 -21 -21 -59 hvcurveto
            -73 -34 81 hlineto
            71 41 37 55 58 -46 32 -81 -4 hvcurveto
            return
          </CharString>
          <CharString index="181">
            31 34 -359 -34 217 hlineto
            -76 -32 -45 -68 -87 vvcurveto
            return
          </CharString>
          <CharString index="182">
            -106 -93 hvcurveto
            -1 vlineto
            return
          </CharString>
          <CharString index="183">
            4 301 716 rmoveto
            191 42 -156 -203 -205 -42 -157 -191 -192 -42 157 205 203 42 156 192 hvcurveto
            -41 vmoveto
            -162 -27 -140 -178 -179 27 -142 162 162 27 142 179 178 -27 140 -162 hvcurveto
            endchar
          </CharString>
          <CharString index="184">
            vlineto
            4 callsubr
            return
          </CharString>
          <CharString index="185">
            138 callsubr
            -140 125 -76 181 -2 vhcurveto
            -162 -162 176 callsubr
            -166 167 rlineto
            175 25 120 113 177 vvcurveto
            return
          </CharString>
          <CharString index="186">
            -34 -31 -19 -46 -56 vvcurveto
            -15 2 -20 2 -14 vhcurveto
            14 callgsubr
            328 callgsubr
            -118 -27 -100 vhcurveto
            return
          </CharString>
          <CharString index="187">
            rmoveto
            -305 hlineto
            153 410 rlineto
            endchar
          </CharString>
          <CharString index="188">
            2 3 -15 vhcurveto
            -34 vlineto
            -3 return
          </CharString>
          <CharString index="189">
            162 callsubr
            50 return
          </CharString>
          <CharString index="190">
            rmoveto
            -138 -82 -39 82 -359 vlineto
            -107 45 -38 93 vhcurveto
            68 40 -61 hlineto
            -73 -27 23 82 hvcurveto
            359 161 39 -161 138 vlineto
            endchar
          </CharString>
          <CharString index="191">
            -336 107 callsubr
            return
          </CharString>
          <CharString index="192">
            hhcurveto
            -118 -99 callsubr
            return
          </CharString>
          <CharString index="193">
            202 callsubr
            vlineto
            -201 35 callgsubr
          </CharString>
          <CharString index="194">
            vvcurveto
            -162 98 -103 171 120 83 63 99 35 vhcurveto
            -99 29 85 -57 106 hhcurveto
            111 69 59 72 29 hvcurveto
            -246 39 vlineto
            -241 149 114 callsubr
          </CharString>
          <CharString index="195">
            -55 319 -25 rmoveto
            47 hlineto
            321 328 rlineto
            44 vlineto
            -719 358 rmoveto
            719 35 -719 hlineto
            291 -521 rmoveto
            110 66 78 110 hvcurveto
            64 252 35 -291 -99 vlineto
            -38 callsubr
            99 -40 -99 1 callgsubr
            vhcurveto
            return
          </CharString>
          <CharString index="196">
            278 callsubr
            vlineto
            158 callgsubr
            endchar
          </CharString>
          <CharString index="197">
            -106 callsubr
            53 87 return
          </CharString>
          <CharString index="198">
            rmoveto
            91 42 321 callgsubr
            -72 -118 vhcurveto
            -17 vlineto
            -106 62 -78 108 316 callgsubr
            233 -470 return
          </CharString>
          <CharString index="199">
            37 576 374 rmoveto
            19 14 14 19 20 -14 14 -19 -20 -15 -14 -20 -19 15 -14 20 hvcurveto
            return
          </CharString>
          <CharString index="200">
            -186 -169 rlineto
            48 hlineto
            235 215 24 22 18 27 11 29 rlinecurve
            return
          </CharString>
          <CharString index="201">
            144 callsubr
            71 -36 53 -46 26 return
          </CharString>
          <CharString index="202">
            -146 110 -103 150 154 104 106 152 return
          </CharString>
          <CharString index="203">
            72 107 -15 callgsubr
            return
          </CharString>
          <CharString index="204">
            4 0 5 6 vvcurveto
            return
          </CharString>
          <CharString index="205">
            139 callgsubr
            -77 -172 10 callgsubr
            131 hlineto
            -17 -33 -10 -39 -44 vvcurveto
            return
          </CharString>
          <CharString index="206">
            14 10 rlineto
            75 58 45 57 86 vvcurveto
            89 -68 79 -112 -110 -67 -81 -90 -90 54 -63 95 -52 vhcurveto
            14 -8 -214 -163 rlineto
            return
          </CharString>
          <CharString index="207">
            rmoveto
            -43 hlineto
            -70 -122 rlineto
            34 hlineto
            -54 122 rmoveto
            -44 hlineto
            -62 -122 rlineto
            34 hlineto
            endchar
          </CharString>
          <CharString index="208">
            4 callgsubr
            264 callgsubr
            168 return
          </CharString>
          <CharString index="209">
            64 67 30 vhcurveto
            -260 return
          </CharString>
          <CharString index="210">
            107 546 222 callgsubr
            -769 -35 328 -253 hlineto
            -56 -97 callgsubr
            251 208 -371 vlineto
            -355 -354 rlineto
            48 hlineto
            308 309 rlineto
            return
          </CharString>
          <CharString index="211">
            269 406 rmoveto
            -83 46 -40 53 4 82 rrcurveto
            66 3 55 61 81 hhcurveto
            89 52 -65 -69 -78 -43 -49 -63 -49 hvcurveto
            -22 -17 rlineto
            return
          </CharString>
          <CharString index="212">
            hlineto
            -84 callgsubr
            return
          </CharString>
          <CharString index="213">
            -138 87 -89 137 81 69 40 57 27 return
          </CharString>
          <CharString index="214">
            vlineto
            -124 -102 -81 -120 vhcurveto
            return
          </CharString>
          <CharString index="215">
            -35 418 -105 vlineto
            -76 callsubr
            472 vlineto
            -1 -9 0 -10 -10 vvcurveto
            return
          </CharString>
          <CharString index="216">
            -86 -96 -30 -107 346 callsubr
            hvcurveto
            48 hlineto
            83 89 -28 -107 -68 -49 -61 -103 -116 -66 70 90 -10 hvcurveto
            -36 -254 39 return
          </CharString>
          <CharString index="217">
            hlineto
            239 132 130 220 220 -132 132 -239 hvcurveto
            -666 vmoveto
            return
          </CharString>
          <CharString index="218">
            121 124 callsubr
            return
          </CharString>
          <CharString index="219">
            -157 552 296 rmoveto
            45 vlineto
            -362 -361 rlineto
            48 hlineto
            -270 725 rmoveto
            328 -253 hlineto
            -56 -97 callgsubr
            251 215 35 -584 vlineto
            return
          </CharString>
          <CharString index="220">
            172 269 444 rmoveto
            -87 41 -39 50 4 75 rrcurveto
            62 3 55 57 81 hhcurveto
            89 52 -61 -65 -71 -45 -42 -61 -47 hvcurveto
            -19 -15 rlineto
            312 -428 rmoveto
            37 -98 callgsubr
            -190 -460 hlineto
            -277 132 10 8 rlineto
            return
          </CharString>
          <CharString index="221">
            rmoveto
            -12 callsubr
            144 48 callsubr
            -144 vhcurveto
            endchar
          </CharString>
          <CharString index="222">
            -55 259 149 rmoveto
            110 67 320 callsubr
            251 36 -291 242 callsubr
            vhcurveto
            -291 556 rmoveto
            719 35 -719 hlineto
            return
          </CharString>
          <CharString index="223">
            -3 rmoveto
            -96 callsubr
            return
          </CharString>
          <CharString index="224">
            rmoveto
            -105 -81 71 126 119 84 72 102 132 54 -104 -91 return
          </CharString>
          <CharString index="225">
            130 callgsubr
            422 -111 hlineto
            -129 -70 -60 -118 vhcurveto
            -108 -199 hlineto
            -127 61 -88 125 113 70 78 121 vhcurveto
            12 -39 -13 vlineto
            146 callgsubr
            -99 -46 73 103 vhcurveto
            170 54 vlineto
            -8 -3 rlineto
            return
          </CharString>
          <CharString index="226">
            vvcurveto
            -90 callgsubr
            vhcurveto
            161 callsubr
          </CharString>
          <CharString index="227">
            99 65 callgsubr
            return
          </CharString>
          <CharString index="228">
            rmoveto
            105 592 -257 vlineto
            -53 callgsubr
            -103 -84 -61 -102 -24 hvcurveto
            -285 59 callsubr
            return
          </CharString>
          <CharString index="229">
            353 callgsubr
            111 -97 hlineto
            -101 -46 183 callsubr
            return
          </CharString>
          <CharString index="230">
            rmoveto
            -150 -91 -90 -132 -126 -97 93 147 145 97 94 126 132 91 -89 -150 vhcurveto
            endchar
          </CharString>
          <CharString index="231">
            370 callgsubr
            41 705 return
          </CharString>
          <CharString index="232">
            rmoveto
            38 hlineto
            49 5 28 28 45 hhcurveto
            38 31 -22 -50 -53 -35 -36 -38 -35 hvcurveto
            -112 -104 rlineto
            -25 234 32 -186 vlineto
            86 75 rlineto
            56 48 35 40 60 vvcurveto
            60 -44 41 -64 -77 -37 -50 -58 -3 vhcurveto
            endchar
          </CharString>
          <CharString index="233">
            264 callsubr
            -32 vhcurveto
            -27 vlineto
            46 31 22 74 15 -1 18 -4 16 hvcurveto
            return
          </CharString>
          <CharString index="234">
            hlineto
            139 callsubr
            return
          </CharString>
          <CharString index="235">
            192 callsubr
            -58 -76 vhcurveto
            return
          </CharString>
          <CharString index="236">
            -102 -55 -56 -69 -24 hvcurveto
            return
          </CharString>
          <CharString index="237">
            89 -111 hhcurveto
            return
          </CharString>
          <CharString index="238">
            217 159 -97 callsubr
            801 546 rmoveto
            200 callgsubr
            -98 -84 -50 -86 -37 hvcurveto
            -209 257 hlineto
            return
          </CharString>
          <CharString index="239">
            hlineto
            101 -10 -72 90 -139 hhcurveto
            -136 -63 -84 -78 387 callsubr
            57 14 51 69 110 hhcurveto
            123 61 -86 -94 -99 -61 -86 -123 -107 -59 67 58 -9 hvcurveto
            -38 hlineto
            -76 9 70 -86 134 hhcurveto
            return
          </CharString>
          <CharString index="240">
            -85 -34 -112 vhcurveto
            return
          </CharString>
          <CharString index="241">
            rmoveto
            -437 -261 vlineto
            306 448 rmoveto
            309 37 -375 hlineto
            -419 -702 rlineto
            49 hlineto
            108 180 rlineto
            283 -180 354 37 -309 297 279 36 -279 hlineto
            endchar
          </CharString>
          <CharString index="242">
            rmoveto
            19 callgsubr
            return
          </CharString>
          <CharString index="243">
            344 callgsubr
            170 callgsubr
            vhcurveto
            31 34 return
          </CharString>
          <CharString index="244">
            -35 463 167 callsubr
            return
          </CharString>
          <CharString index="245">
            215 130 callgsubr
            140 -125 hlineto
            75 callgsubr
            return
          </CharString>
          <CharString index="246">
            -29 -28 -16 -40 -46 vvcurveto
            -99 65 -51 173 callgsubr
            return
          </CharString>
          <CharString index="247">
            160 -161 rlineto
            45 hlineto
            return
          </CharString>
          <CharString index="248">
            hhcurveto
            -96 -50 callgsubr
            return
          </CharString>
          <CharString index="249">
            370 callsubr
            vhcurveto
            494 55 rmoveto
            -143 -85 59 callgsubr
            128 89 47 284 callsubr
          </CharString>
          <CharString index="250">
            357 callgsubr
            86 140 hvcurveto
            97 callsubr
            128 89 375 callsubr
            104 -77 callsubr
            263 -164 -21 callgsubr
            return
          </CharString>
          <CharString index="251">
            -106 112 callgsubr
            return
          </CharString>
          <CharString index="252">
            113 108 77 return
          </CharString>
          <CharString index="253">
            -61 callsubr
            83 169 197 35 -697 hlineto
            return
          </CharString>
          <CharString index="254">
            -56 14 -43 34 58 vvcurveto
            74 63 25 70 vhcurveto
            189 176 149 35 -651 271 callgsubr
            -33 -44 -73 -87 vvcurveto
            return
          </CharString>
          <CharString index="255">
            -209 312 253 44 callgsubr
            344 -302 rlineto
            -50 -9 -58 -63 -99 hhcurveto
            -344 452 rmoveto
            220 callsubr
            71 -93 144 return
          </CharString>
          <CharString index="256">
            rmoveto
            -35 324 35 vlineto
            endchar
          </CharString>
          <CharString index="257">
            -7 29 28 vvcurveto
            77 39 40 60 52 38 -37 -55 -3 vhcurveto
            35 hlineto
            75 4 -49 50 -71 hhcurveto
            -88 -38 -66 -72 -10 1 -10 1 -10 hvcurveto
            160 -105 -50 10 -106 hhcurveto
            -35 -34 36 hlineto
            return
          </CharString>
          <CharString index="258">
            253 179 rmoveto
            -73 -53 46 71 73 56 46 81 hvcurveto
            112 -78 356 callsubr
            return
          </CharString>
          <CharString index="259">
            87 -77 callsubr
            263 -164 -21 callgsubr
            return
          </CharString>
          <CharString index="260">
            366 callsubr
            -61 -85 return
          </CharString>
          <CharString index="261">
            470 155 callgsubr
            return
          </CharString>
          <CharString index="262">
            -114 -80 -71 -112 -107 77 return
          </CharString>
          <CharString index="263">
            rmoveto
            -119 -61 75 116 6 0 6 1 6 hvcurveto
            107 1 73 28 85 vvcurveto
            106 -98 23 -98 vhcurveto
            -257 140 634 -357 hlineto
            -136 -61 -99 -121 vhcurveto
            endchar
          </CharString>
          <CharString index="264">
            64 callgsubr
            197 130 121 165 return
          </CharString>
          <CharString index="265">
            -35 219 callsubr
            142 76 55 31 41 return
          </CharString>
          <CharString index="266">
            393 556 rmoveto
            35 return
          </CharString>
          <CharString index="267">
            71 49 57 109 vhcurveto
            -98 callsubr
            return
          </CharString>
          <CharString index="268">
            -245 38 341 vlineto
            157 callgsubr
            -43 callgsubr
          </CharString>
          <CharString index="269">
            50 77 78 57 return
          </CharString>
          <CharString index="270">
            44 311 243 callgsubr
            -343 451 rmoveto
            179 callgsubr
            hlineto
            -148 69 return
          </CharString>
          <CharString index="271">
            -370 -362 rlineto
            -3 51 vlineto
            320 320 rlineto
            -320 -30 callsubr
            return
          </CharString>
          <CharString index="272">
            63 callsubr
            133 return
          </CharString>
          <CharString index="273">
            -325 40 315 callgsubr
            return
          </CharString>
          <CharString index="274">
            332 callgsubr
            hlineto
            -90 -73 -37 -89 return
          </CharString>
          <CharString index="275">
            71 -30 -71 62 -111 hhcurveto
            return
          </CharString>
          <CharString index="276">
            -34 hlineto
            -127 -101 -89 -130 -109 -85 48 103 76 52 62 129 vhcurveto
            362 callsubr
            440 35 -624 vlineto
            endchar
          </CharString>
          <CharString index="277">
            -56 rmoveto
            -65 -53 37 264 callsubr
            return
          </CharString>
          <CharString index="278">
            225 callsubr
            -92 -60 -63 return
          </CharString>
          <CharString index="279">
            -35 179 callgsubr
            return
          </CharString>
          <CharString index="280">
            rmoveto
            456 -148 -146 -73 callgsubr
            return
          </CharString>
          <CharString index="281">
            -38 hlineto
            -121 -101 -80 -120 -142 -87 90 154 vhcurveto
            97 callsubr
            128 89 47 359 callsubr
            271 35 -636 vlineto
            endchar
          </CharString>
          <CharString index="282">
            106 callsubr
            vhcurveto
            -221 return
          </CharString>
          <CharString index="283">
            rlineto
            -2 callsubr
            return
          </CharString>
          <CharString index="284">
            75 callsubr
            -86 return
          </CharString>
          <CharString index="285">
            -161 99 -89 161 return
          </CharString>
          <CharString index="286">
            -34 215 hlineto
            -79 -30 -61 -73 -124 vvcurveto
            -152 99 -86 160 vhcurveto
            27 34 -22 hlineto
            -144 -80 75 131 153 97 70 149 hvcurveto
            return
          </CharString>
          <CharString index="287">
            178 callsubr
            hvcurveto
            -66 callsubr
            return
          </CharString>
          <CharString index="288">
            -139 -41 hlineto
            -164 -124 -84 -177 return
          </CharString>
          <CharString index="289">
            197 callsubr
            41 705 return
          </CharString>
          <CharString index="290">
            -57 -76 vhcurveto
            -35 vmoveto
            182 callgsubr
            187 287 callgsubr
            -192 -292 -187 101 vlineto
            304 callsubr
            return
          </CharString>
          <CharString index="291">
            hhcurveto
            -11 295 rmoveto
            84 6 60 34 25 52 rrcurveto
            -228 vlineto
            -21 -5 -23 -9 -22 vhcurveto
            -252 167 25 21 34 12 38 2 rlinecurve
            endchar
          </CharString>
          <CharString index="292">
            -36 callgsubr
            endchar
          </CharString>
          <CharString index="293">
            57 callgsubr
            87 60 45 53 26 vhcurveto
            -66 23 56 -43 80 hhcurveto
            111 62 78 109 hvcurveto
            312 return
          </CharString>
          <CharString index="294">
            -88 callsubr
            -717 hlineto
            endchar
          </CharString>
          <CharString index="295">
            492 207 callgsubr
            return
          </CharString>
          <CharString index="296">
            316 callsubr
            60 90 87 63 -61 -86 -86 -63 -61 -87 hvcurveto
            return
          </CharString>
          <CharString index="297">
            -3 hlineto
            -23 callsubr
            return
          </CharString>
          <CharString index="298">
            122 49 callsubr
            return
          </CharString>
          <CharString index="299">
            178 callgsubr
            -100 -47 return
          </CharString>
          <CharString index="300">
            -126 348 callgsubr
            return
          </CharString>
          <CharString index="301">
            6 callgsubr
            hlineto
            return
          </CharString>
          <CharString index="302" raw="1">
            d8f70c1e 0e  
          </CharString>
          <CharString index="303">
            -97 callsubr
            376 289 64 callsubr
            return
          </CharString>
          <CharString index="304">
            101 callsubr
            129 callgsubr
            return
          </CharString>
          <CharString index="305">
            -82 hlineto
            4 callgsubr
            return
          </CharString>
          <CharString index="306">
            rmoveto
            -76 -256 rlineto
            35 hlineto
            93 256 rlineto
            endchar
          </CharString>
          <CharString index="307">
            -262 -30 callsubr
            -696 -35 231 -82 vlineto
            -137 -85 -38 -106 vhcurveto
            -178 101 hlineto
            225 callsubr
            return
          </CharString>
          <CharString index="308">
            hhcurveto
            -150 -102 -78 111 callgsubr
            83 67 130 return
          </CharString>
          <CharString index="309">
            -114 93 -57 126 129 81 58 109 32 vhcurveto
            159 callgsubr
            return
          </CharString>
          <CharString index="310">
            -598 -158 737 rmoveto
            39 hlineto
            221 -134 -48 12 -119 hhcurveto
            -35 -34 36 hlineto
            103 39 -12 -187 119 hvcurveto
            return
          </CharString>
          <CharString index="311">
            -171 110 -109 152 119 81 68 return
          </CharString>
          <CharString index="312">
            67 149 hvcurveto
            return
          </CharString>
          <CharString index="313">
            210 callgsubr
            91 return
          </CharString>
          <CharString index="314">
            hhcurveto
            152 110 109 171 172 -110 106 -152 return
          </CharString>
          <CharString index="315">
            78 110 vhcurveto
            return
          </CharString>
          <CharString index="316">
            rmoveto
            -12 callsubr
            165 callgsubr
            return
          </CharString>
          <CharString index="317">
            121 383 callgsubr
          </CharString>
          <CharString index="318">
            67 rmoveto
            -161 -114 62 123 83 55 69 134 hvcurveto
            23 35 -23 hlineto
            -115 -47 50 93 hvcurveto
            123 return
          </CharString>
          <CharString index="319">
            rmoveto
            -120 -90 -72 -121 hvcurveto
            43 hlineto
            94 65 61 103 100 70 -62 -100 -155 -118 -24 -117 vhcurveto
            -20 return
          </CharString>
          <CharString index="320">
            -119 rmoveto
            -92 -70 57 99 99 67 61 124 55 45 9 17 37 hvcurveto
            -182 vlineto
            -71 -50 -89 -116 vhcurveto
            return
          </CharString>
          <CharString index="321" raw="1">
            f714e4f7 601d0b  
          </CharString>
          <CharString index="322">
            -20 -32 298 callsubr
            -4 16 hvcurveto
            return
          </CharString>
          <CharString index="323">
            rmoveto
            -28 callsubr
            return
          </CharString>
          <CharString index="324">
            -37 -28 -23 -44 -56 vvcurveto
            -97 66 -65 99 vhcurveto
            return
          </CharString>
          <CharString index="325">
            112 76 71 82 19 hvcurveto
            2 hlineto
            return
          </CharString>
          <CharString index="326">
            220 callsubr
            70 -93 return
          </CharString>
          <CharString index="327">
            179 callgsubr
            hlineto
            -150 return
          </CharString>
          <CharString index="328">
            vlineto
            52 callsubr
            return
          </CharString>
          <CharString index="329">
            154 104 106 152 hvcurveto
            return
          </CharString>
          <CharString index="330">
            rmoveto
            -75 callsubr
            return
          </CharString>
          <CharString index="331">
            -199 -273 -169 return
          </CharString>
          <CharString index="332">
            304 callsubr
            -106 return
          </CharString>
          <CharString index="333">
            -91 hhcurveto
            -111 -89 124 callgsubr
            -27 -61 -61 -96 hhcurveto
            268 149 rmoveto
            -93 return
          </CharString>
          <CharString index="334">
            hlineto
            216 -451 rmoveto
            -78 callsubr
            return
          </CharString>
          <CharString index="335">
            -81 478 710 rmoveto
            -460 -39 416 hlineto
            -286 -671 rlineto
            50 hlineto
            280 674 rlineto
            endchar
          </CharString>
          <CharString index="336">
            rmoveto
            -114 -88 74 127 123 92 73 110 142 57 -106 -93 -87 -57 -111 -142 hvcurveto
            return
          </CharString>
          <CharString index="337">
            562 -35 vlineto
            -104 -94 -41 -72 -101 -65 58 90 104 78 51 124 vhcurveto
            139 162 164 35 return
          </CharString>
          <CharString index="338">
            104 53 rmoveto
            -68 -57 39 -11 hlineto
            -36 -13 -21 -33 vhcurveto
            -28 vlineto
            48 33 27 72 16 -2 18 -4 20 hvcurveto
            return
          </CharString>
          <CharString index="339">
            -90 -73 -37 -89 325 callgsubr
            hvcurveto
            -77 -34 -44 -73 -87 vvcurveto
            -115 74 -100 149 vhcurveto
            endchar
          </CharString>
          <CharString index="340">
            924 274 callgsubr
            vhcurveto
            return
          </CharString>
          <CharString index="341">
            91 42 321 callgsubr
            375 callgsubr
            0 vlineto
            return
          </CharString>
          <CharString index="342">
            -77 callgsubr
            134 53 87 105 return
          </CharString>
          <CharString index="343">
            93 51 109 return
          </CharString>
          <CharString index="344">
            69 65 -42 27 hlineto
            31 11 17 35 vhcurveto
            28 vlineto
            -49 -30 -22 -69 -20 2 -25 4 -32 hvcurveto
            endchar
          </CharString>
          <CharString index="345">
            -143 -122 -74 -159 106 callsubr
            hvcurveto
            -221 vlineto
            endchar
          </CharString>
          <CharString index="346">
            -740 45 740 vlineto
            endchar
          </CharString>
          <CharString index="347">
            4 0 5 1 6 hvcurveto
            return
          </CharString>
          <CharString index="348">
            -34 257 callgsubr
            hlineto
            return
          </CharString>
          <CharString index="349">
            -169 vlineto
            -67 callgsubr
            return
          </CharString>
          <CharString index="350">
            rmoveto
            -105 -80 71 126 119 83 72 102 133 53 -104 -91 -85 -54 -108 -132 hvcurveto
            return
          </CharString>
          <CharString index="351">
            -45 hlineto
            -70 -64 26 78 88 84 17 68 hvcurveto
            172 179 204 35 -699 hlineto
            endchar
          </CharString>
          <CharString index="352">
            rmoveto
            -37 200 -665 45 665 200 37 vlineto
            return
          </CharString>
          <CharString index="353">
            -72 -54 273 callgsubr
            return
          </CharString>
          <CharString index="354">
            -196 291 callsubr
            -211 return
          </CharString>
          <CharString index="355">
            224 callsubr
            vlineto
            -89 return
          </CharString>
          <CharString index="356">
            -11 callsubr
            -192 return
          </CharString>
          <CharString index="357">
            346 callgsubr
            -73 return
          </CharString>
          <CharString index="358">
            -196 -346 vlineto
            return
          </CharString>
          <CharString index="359">
            rmoveto
            105 205 -245 vlineto
            -17 1 -16 2 -15 vhcurveto
            261 callgsubr
            return
          </CharString>
          <CharString index="360">
            94 146 5 vhcurveto
            78 hlineto
            130 116 47 144 98 -66 76 -107 -21 -20 -3 -6 return
          </CharString>
          <CharString index="361">
            hlineto
            373 callgsubr
            -172 98 -111 167 275 callgsubr
          </CharString>
          <CharString index="362">
            77 63 67 30 return
          </CharString>
          <CharString index="363">
            rmoveto
            129 -242 hlineto
            -109 63 -79 109 111 62 79 109 vhcurveto
            242 return
          </CharString>
          <CharString index="364">
            280 callsubr
            -643 hlineto
            return
          </CharString>
          <CharString index="365">
            165 23 callgsubr
            return
          </CharString>
          <CharString index="366">
            -198 314 937 rmoveto
            -276 -1098 rlineto
            45 hlineto
            277 1098 rlineto
            endchar
          </CharString>
          <CharString index="367">
            175 rlineto
            -49 hlineto
            -103 -175 103 -175 rlineto
            return
          </CharString>
          <CharString index="368">
            -21 -17 -16 -23 -24 17 -15 21 hvcurveto
            return
          </CharString>
          <CharString index="369">
            rmoveto
            34 hlineto
            78 205 rlineto
            -57 hlineto
            return
          </CharString>
          <CharString index="370">
            425 600 rmoveto
            105 return
          </CharString>
          <CharString index="371">
            -11 hlineto
            -34 -12 -20 return
          </CharString>
          <CharString index="372">
            127 -246 return
          </CharString>
          <CharString index="373">
            283 callsubr
            140 return
          </CharString>
          <CharString index="374">
            136 callsubr
            -359 return
          </CharString>
          <CharString index="375">
            315 callsubr
            vlineto
            endchar
          </CharString>
          <CharString index="376">
            rmoveto
            -73 -53 50 77 78 56 49 81 hvcurveto
            111 -96 hlineto
            -101 -46 -57 -76 vhcurveto
            return
          </CharString>
          <CharString index="377">
            -5 4 238 rlineto
            -43 hlineto
            4 -238 -183 5 rlineto
            -38 vlineto
            183 4 return
          </CharString>
          <CharString index="378">
            -3 rmoveto
            -36 callgsubr
            return
          </CharString>
          <CharString index="379">
            -28 callsubr
            -73 -64 -28 -50 -42 hvcurveto
            -163 hlineto
            return
          </CharString>
          <CharString index="380">
            -125 vlineto
            -104 58 -45 70 -9 vhcurveto
            -2 vlineto
            return
          </CharString>
          <CharString index="381">
            146 -429 hlineto
            -153 72 -104 162 return
          </CharString>
          <CharString index="382">
            rmoveto
            -30 callsubr
            return
          </CharString>
          <CharString index="383">
            rmoveto
            129 callsubr
            return
          </CharString>
          <CharString index="384">
            -1 299 callsubr
            return
          </CharString>
          <CharString index="385">
            -35 265 callsubr
            return
          </CharString>
          <CharString index="386">
            54 34 -55 hlineto
            return
          </CharString>
          <CharString index="387">
            -45 hlineto
            -70 -64 26 78 88 84 17 68 hvcurveto
            165 179 155 35 return
          </CharString>
          <CharString index="388">
            150 76 104 135 121 -59 89 -106 12 hvcurveto
            152 277 35 return
          </CharString>
          <CharString index="389">
            -93 vlineto
            78 callgsubr
            return
          </CharString>
          <CharString index="390">
            78 callgsubr
            94 -62 return
          </CharString>
          <CharString index="391">
            148 hvcurveto
            29 callgsubr
            endchar
          </CharString>
          <CharString index="392">
            312 callgsubr
            vlineto
            endchar
          </CharString>
          <CharString index="393">
            -97 175 callgsubr
            vlineto
            endchar
          </CharString>
          <CharString index="394">
            87 rmoveto
            91 42 305 callsubr
            return
          </CharString>
          <CharString index="395">
            240 callsubr
            127 return
          </CharString>
          <CharString index="396">
            -27 -28 -15 -41 -50 vvcurveto
            return
          </CharString>
          <CharString index="397">
            18 17 2 3 16 vhcurveto
            return
          </CharString>
          <CharString index="398">
            -145 -147 return
          </CharString>
          <CharString index="399">
            300 callsubr
            hlineto
            return
          </CharString>
          <CharString index="400">
            -87 -73 45 96 73 49 58 107 hvcurveto
            6 34 -6 hlineto
            -107 -54 51 78 return
          </CharString>
          <CharString index="401">
            rmoveto
            34 -23 vlineto
            334 callsubr
            return
          </CharString>
          <CharString index="402">
            -224 130 callgsubr
            179 callgsubr
            hlineto
            -148 71 -93 143 return
          </CharString>
          <CharString index="403">
            rmoveto
            -121 -55 78 128 hvcurveto
            245 return
          </CharString>
          <CharString index="404">
            118 93 75 51 73 34 vhcurveto
            -234 return
          </CharString>
          <CharString index="405">
            vhcurveto
            -27 vlineto
            46 32 22 74 15 -2 18 return
          </CharString>
          <CharString index="406">
            0 -2 -2 vvcurveto
            return
          </CharString>
          <CharString index="407">
            hhcurveto
            311 callsubr
            return
          </CharString>
          <CharString index="408">
            hlineto
            11 30 5 34 36 vvcurveto
            122 -60 90 -107 10 vhcurveto
            151 return
          </CharString>
          <CharString index="409">
            rmoveto
            217 hlineto
            -76 -32 -45 -68 -87 vvcurveto
            -132 101 -74 121 return
          </CharString>
          <CharString index="410">
            330 callgsubr
            endchar
          </CharString>
          <CharString index="411">
            122 -47 78 return
          </CharString>
          <CharString index="412">
            108 131 return
          </CharString>
          <CharString index="413">
            49 77 vvcurveto
            84 -67 74 -112 -109 -66 -75 -85 -81 51 return
          </CharString>
          <CharString index="414">
            -150 -1 -105 -55 -157 vvcurveto
            -121 89 -79 125 vhcurveto
            return
          </CharString>
          <CharString index="415">
            -98 callgsubr
            -1194 -35 615 -196 -318 return
          </CharString>
          <CharString index="416">
            251 -44 hlineto
            -170 -254 rlineto
            -26 176 -74 38 74 return
          </CharString>
          <CharString index="417">
            vlineto
            32 callsubr
            return
          </CharString>
          <CharString index="418">
            58 callsubr
            255 callgsubr
            return
          </CharString>
          <CharString index="419">
            13 -37 -12 vlineto
            -92 -46 -61 -73 -87 -41 63 87 vhcurveto
            203 return
          </CharString>
          <CharString index="420">
            356 callgsubr
            vlineto
            endchar
          </CharString>
          <CharString index="421">
            rmoveto
            -321 38 352 -92 -31 vlineto
            return
          </CharString>
          <CharString index="422">
            hhcurveto
            83 58 42 64 28 hvcurveto
            -325 return
          </CharString>
          <CharString index="423">
            rmoveto
            -92 -62 60 86 88 64 return
          </CharString>
          <CharString index="424">
            233 -27 callgsubr
            return
          </CharString>
          <CharString index="425">
            -152 82 callgsubr
            return
          </CharString>
          <CharString index="426">
            hmoveto
            -11 callsubr
            return
          </CharString>
          <CharString index="427">
            78 110 hvcurveto
            133 return
          </CharString>
          <CharString index="428">
            11 11 1 1 11 vhcurveto
            return
          </CharString>
          <CharString index="429">
            34 -23 hlineto
            -143 -80 return
          </CharString>
          <CharString index="430">
            -3 14 15 -1 15 hhcurveto
            return
          </CharString>
          <CharString index="431">
            -254 vlineto
            59 -24 return
          </CharString>
          <CharString index="432">
            16 15 1 3 14 return
          </CharString>
          <CharString index="433">
            305 callsubr
            98 return
          </CharString>
          <CharString index="434">
            -89 -140 -147 return
          </CharString>
          <CharString index="435">
            rmoveto
            -81 -50 63 89 hvcurveto
            19 vlineto
            133 -85 86 -118 return
          </CharString>
          <CharString index="436">
            302 351 callsubr
            return
          </CharString>
          <CharString index="437">
            97 63 349 callgsubr
            return
          </CharString>
          <CharString index="438">
            41 388 callgsubr
          </CharString>
          <CharString index="439">
            -80 -71 -113 return
          </CharString>
          <CharString index="440">
            -85 92 152 return
          </CharString>
          <CharString index="441">
            -144 -80 78 137 147 98 205 callsubr
            return
          </CharString>
          <CharString index="442">
            461 -137 -53 hlineto
            223 callgsubr
            return
          </CharString>
          <CharString index="443">
            101 hlineto
            363 callsubr
            return
          </CharString>
          <CharString index="444">
            -148 -96 73 126 137 104 64 129 vhcurveto
            return
          </CharString>
          <CharString index="445">
            -11 callsubr
            -982 -35 314 -147 return
          </CharString>
          <CharString index="446">
            -95 vvcurveto
            -150 89 -122 163 -6 vhcurveto
            endchar
          </CharString>
          <CharString index="447">
            -381 331 rlineto
            381 35 -547 hlineto
            endchar
          </CharString>
          <CharString index="448">
            -180 -21 callgsubr
            return
          </CharString>
          <CharString index="449">
            rmoveto
            -214 257 214 hlineto
            return
          </CharString>
          <CharString index="450">
            -36 387 callgsubr
            return
          </CharString>
          <CharString index="451">
            rmoveto
            -144 -85 return
          </CharString>
          <CharString index="452">
            165 129 return
          </CharString>
          <CharString index="453">
            -94 78 -41 90 return
          </CharString>
          <CharString index="454">
            rmoveto
            -123 -55 return
          </CharString>
          <CharString index="455">
            vlineto
            40 -1 rlineto
            return
          </CharString>
          <CharString index="456">
            -53 callgsubr
            -123 -95 -86 -140 return
          </CharString>
          <CharString index="457">
            705 239 -705 -75 callsubr
            return
          </CharString>
          <CharString index="458">
            254 rmoveto
            -115 -52 78 128 hvcurveto
            245 return
          </CharString>
          <CharString index="459">
            362 callgsubr
            -12 return
          </CharString>
          <CharString index="460">
            149 110 103 145 100 -52 79 -82 37 return
          </CharString>
          <CharString index="461">
            -145 110 -89 132 22 20 2 5 19 return
          </CharString>
          <CharString index="462">
            -196 -345 vlineto
            -114 -81 -71 -113 hvcurveto
            return
          </CharString>
          <CharString index="463">
            hlineto
            -101 -46 -57 -77 vhcurveto
            return
          </CharString>
          <CharString index="464">
            236 callsubr
            132 return
          </CharString>
          <CharString index="465">
            -35 495 -204 -98 return
          </CharString>
          <CharString index="466">
            148 hvcurveto
            87 return
          </CharString>
          <CharString index="467">
            60 90 87 63 return
          </CharString>
          <CharString index="468">
            248 callsubr
            -51 -63 -85 return
          </CharString>
          <CharString index="469">
            53 34 -51 288 callgsubr
            return
          </CharString>
          <CharString index="470">
            225 callsubr
            -20 -19 -3 -6 -17 vhcurveto
            return
          </CharString>
          <CharString index="471">
            rmoveto
            -95 -80 48 103 76 52 62 129 hvcurveto
            return
          </CharString>
          <CharString index="472">
            211 callgsubr
            -154 vlineto
            return
          </CharString>
          <CharString index="473">
            rmoveto
            -92 -62 60 85 358 callgsubr
            return
          </CharString>
          <CharString index="474">
            76 64 67 30 hvcurveto
            -260 return
          </CharString>
          <CharString index="475">
            vvcurveto
            -147 98 -88 133 return
          </CharString>
          <CharString index="476">
            -221 40 320 -36 vlineto
            return
          </CharString>
          <CharString index="477">
            vvcurveto
            -162 97 -103 168 return
          </CharString>
          <CharString index="478">
            hlineto
            -134 -101 -62 -128 return
          </CharString>
          <CharString index="479">
            -164 rmoveto
            705 return
          </CharString>
          <CharString index="480">
            164 rmoveto
            -143 return
          </CharString>
          <CharString index="481">
            -85 -30 -112 vhcurveto
            return
          </CharString>
          <CharString index="482">
            48 148 hvcurveto
            return
          </CharString>
          <CharString index="483">
            15 53 395 rmoveto
            -40 510 40 vlineto
            return
          </CharString>
          <CharString index="484">
            vlineto
            0 vlineto
            -127 -60 -76 -110 vhcurveto
            return
          </CharString>
          <CharString index="485">
            rmoveto
            -257 vlineto
            -53 callgsubr
            return
          </CharString>
          <CharString index="486">
            -246 hlineto
            -147 66 -92 133 14 return
          </CharString>
          <CharString index="487">
            -79 -86 -43 -123 -33 6 -35 13 -37 return
          </CharString>
          <CharString index="488">
            rmoveto
            91 42 305 callsubr
            96 72 -70 return
          </CharString>
          <CharString index="489">
            -39 -157 vhcurveto
            -17 40 17 vlineto
            175 return
          </CharString>
          <CharString index="490">
            hhcurveto
            222 callsubr
            endchar
          </CharString>
          <CharString index="491">
            -19 -3 -6 -18 return
          </CharString>
          <CharString index="492">
            123 76 64 return
          </CharString>
          <CharString index="493">
            94 146 4 return
          </CharString>
          <CharString index="494">
            -14 hvcurveto
            38 hlineto
            return
          </CharString>
        <CharString name=".notdef">
          -98 0 vmoveto
          500 700 -500 hlineto
          250 -305 rmoveto
          -170 255 rlineto
          340 hlineto
          -140 -300 rmoveto
          170 255 rlineto
          -510 vlineto
          -370 -45 rmoveto
          170 255 170 -255 rlineto
          -370 555 rmoveto
          170 -255 -170 -255 rlineto
          endchar
        </CharString>
        <CharString name="A">
          -46 callsubr
          -14 37 80 callsubr
        </CharString>
        <CharString name="AE">
          261 451 654 134 callsubr
        </CharString>
        <CharString name="Aacute">
          -46 callsubr
          -80 719 -78 callgsubr
          66 -638 80 callsubr
        </CharString>
        <CharString name="Abreve">
          -46 callsubr
          -40 691 -74 callsubr
          26 -654 80 callsubr
        </CharString>
        <CharString name="Acircumflex">
          -46 callsubr
          -38 578 -44 callsubr
          152 -623 80 callsubr
        </CharString>
        <CharString name="Adieresis">
          -46 callsubr
          -237 589 -96 callgsubr
          79 -552 80 callsubr
        </CharString>
        <CharString name="Agrave">
          -46 callsubr
          -276 719 rmoveto
          -44 vlineto
          196 -124 rlineto
          37 vlineto
          66 -551 80 callsubr
        </CharString>
        <CharString name="Amacron">
          -46 callsubr
          -329 652 rmoveto
          -35 324 35 vlineto
          -9 -615 80 callsubr
        </CharString>
        <CharString name="Aogonek">
          29 339 686 rmoveto
          -50 hlineto
          -258 -686 rlineto
          49 hlineto
          67 180 rlineto
          333 hlineto
          64 -171 -23 -10 rlineto
          -71 -32 -26 -38 -42 vvcurveto
          -58 47 -25 54 22 24 5 8 21 vhcurveto
          34 vlineto
          -8 -21 -23 -5 -19 hhcurveto
          -38 -28 17 36 28 17 27 50 23 hvcurveto
          66 31 rlineto
          -130 217 80 callsubr
        </CharString>
        <CharString name="Aring">
          -46 callsubr
          -101 672 rmoveto
          -41 -28 -26 -37 -37 -28 26 41 41 28 25 37 37 28 -25 -41 vhcurveto
          -160 -1 rmoveto
          -59 43 -36 52 52 43 36 59 60 -43 36 -52 -52 -43 -36 -60 vhcurveto
          247 -634 80 callsubr
        </CharString>
        <CharString name="Atilde">
          -46 callsubr
          -280 569 rmoveto
          -93 callsubr
          266 -532 80 callsubr
        </CharString>
        <CharString name="B">
          -19 484 191 rmoveto
          -95 -68 -58 -114 vhcurveto
          -175 306 172 hlineto
          115 70 -60 -93 hvcurveto
          -17 333 rmoveto
          -87 -57 -55 -107 vhcurveto
          -176 281 171 hlineto
          117 52 -57 -82 hvcurveto
          62 -336 rmoveto
          90 -64 71 -80 14 vhcurveto
          67 18 61 51 96 vvcurveto
          96 -65 78 -147 vhcurveto
          -219 -702 223 hlineto
          149 75 83 105 hvcurveto
          endchar
        </CharString>
        <CharString name="C">
          -56 callsubr
          endchar
        </CharString>
        <CharString name="CR">
          -305 endchar
        </CharString>
        <CharString name="Cacute">
          -56 callsubr
          436 549 -78 callgsubr
          endchar
        </CharString>
        <CharString name="Ccaron">
          -56 callsubr
          478 525 -59 callsubr
        </CharString>
        <CharString name="Ccedilla">
          172 54 350 rmoveto
          -209 143 -148 192 vhcurveto
          -102 73 callsubr
          72 vlineto
          144 11 97 80 46 121 rrcurveto
          -52 hlineto
          -101 -39 -91 -71 -140 hhcurveto
          -161 -128 121 195 198 128 120 161 140 91 -71 -101 39 hvcurveto
          52 hlineto
          131 -50 -109 82 -163 hhcurveto
          -192 -143 -148 -211 hvcurveto
          endchar
        </CharString>
        <CharString name="Cdotaccent">
          -56 callsubr
          350 402 -34 callsubr
        </CharString>
        <CharString name="D">
          109 callgsubr
          endchar
        </CharString>
        <CharString name="Dcaron">
          109 callgsubr
          193 839 -59 callsubr
        </CharString>
        <CharString name="Dcroat">
          66 callgsubr
        </CharString>
        <CharString name="E">
          -54 callgsubr
          endchar
        </CharString>
        <CharString name="Eacute">
          -54 callgsubr
          200 234 -78 callgsubr
          endchar
        </CharString>
        <CharString name="Ebreve">
          -54 callgsubr
          240 206 -74 callsubr
          endchar
        </CharString>
        <CharString name="Ecaron">
          -54 callgsubr
          242 210 -59 callsubr
        </CharString>
        <CharString name="Ecircumflex">
          -54 callgsubr
          242 93 -44 callsubr
          endchar
        </CharString>
        <CharString name="Edieresis">
          -54 callgsubr
          43 104 -96 callgsubr
          endchar
        </CharString>
        <CharString name="Edotaccent">
          -54 callgsubr
          114 87 -34 callsubr
        </CharString>
        <CharString name="Egrave">
          -54 callgsubr
          4 234 2 callgsubr
        </CharString>
        <CharString name="Emacron">
          -54 callgsubr
          -49 167 149 callsubr
        </CharString>
        <CharString name="Eogonek">
          -107 437 665 rmoveto
          37 -355 -702 282 vlineto
          -2 -1 -31 callgsubr
          66 31 rlineto
          37 -310 297 280 36 -280 295 vlineto
          endchar
        </CharString>
        <CharString name="Eth">
          66 callgsubr
        </CharString>
        <CharString name="Euro">
          230 120 350 rmoveto
          -24 2 -24 4 -22 vhcurveto
          -104 -34 111 hlineto
          -152 39 125 -101 158 hhcurveto
          163 109 82 131 49 hvcurveto
          -51 hlineto
          -101 -40 -90 -71 -140 hhcurveto
          -130 -108 79 133 -37 hvcurveto
          277 34 -284 hlineto
          -4 22 -2 23 25 vvcurveto
          20 1 20 3 18 vhcurveto
          286 34 -280 hlineto
          143 33 111 83 134 hhcurveto
          140 90 -71 -101 40 hvcurveto
          51 hlineto
          131 -49 -109 82 -163 hhcurveto
          -163 -127 -106 -161 -35 hvcurveto
          -108 -34 102 hlineto
          -3 -19 -1 -19 -20 vvcurveto
          endchar
        </CharString>
        <CharString name="F">
          -117 82 702 rmoveto
          -702 45 333 277 37 -277 295 317 37 vlineto
          endchar
        </CharString>
        <CharString name="G">
          189 54 350 -61 callgsubr
          endchar
        </CharString>
        <CharString name="Gbreve">
          189 54 350 -61 callgsubr
          477 521 -74 callsubr
          endchar
        </CharString>
        <CharString name="Gdotaccent">
          189 54 350 -61 callgsubr
          350 402 -34 callsubr
        </CharString>
        <CharString name="H">
          66 537 702 rmoveto
          -325 -410 325 -45 -702 45 341 410 -341 45 702 vlineto
          endchar
        </CharString>
        <CharString name="I">
          56 callsubr
          endchar
        </CharString>
        <CharString name="Iacute">
          56 callsubr
          64 197 -78 callgsubr
          endchar
        </CharString>
        <CharString name="Icircumflex">
          56 callsubr
          106 56 -44 callsubr
          endchar
        </CharString>
        <CharString name="Idieresis">
          56 callsubr
          -93 67 -96 callgsubr
          endchar
        </CharString>
        <CharString name="Idotaccent">
          56 callsubr
          -22 50 -34 callsubr
        </CharString>
        <CharString name="Igrave">
          56 callsubr
          -132 197 2 callgsubr
        </CharString>
        <CharString name="Imacron">
          56 callsubr
          -185 130 149 callsubr
        </CharString>
        <CharString name="Iogonek">
          -388 82 702 rmoveto
          -690 vlineto
          -30 -13 -31 callgsubr
          66 31 rlineto
          702 vlineto
          endchar
        </CharString>
        <CharString name="Itilde">
          56 callsubr
          -136 47 rmoveto
          -93 callsubr
          endchar
        </CharString>
        <CharString name="J">
          -135 329 702 rmoveto
          -545 vlineto
          -58 -28 -66 -93 -95 -34 69 77 vhcurveto
          -45 hlineto
          -115 65 -71 109 104 63 69 95 vhcurveto
          545 vlineto
          endchar
        </CharString>
        <CharString name="K">
          -67 450 702 rmoveto
          -323 -334 rlineto
          334 -45 -702 45 331 vlineto
          323 -331 rlineto
          59 hlineto
          -343 350 342 352 rlineto
          endchar
        </CharString>
        <CharString name="L">
          -190 127 702 rmoveto
          220 callgsubr
          endchar
        </CharString>
        <CharString name="Lacute">
          -190 127 702 rmoveto
          220 callgsubr
          166 863 -78 callgsubr
          endchar
        </CharString>
        <CharString name="Lcaron">
          -185 318 702 rmoveto
          -69 -65 42 -27 hlineto
          -31 -11 -17 -35 vhcurveto
          -28 vlineto
          50 29 22 69 21 -1 24 -5 32 hvcurveto
          -191 hmoveto
          220 callgsubr
          endchar
        </CharString>
        <CharString name="Ldot">
          -190 127 702 rmoveto
          220 callgsubr
          80 716 -34 callsubr
        </CharString>
        <CharString name="Lslash">
          -175 145 702 rmoveto
          -45 -320 hlineto
          -90 -39 rlineto
          -44 vlineto
          90 39 rlineto
          -338 306 36 -261 321 vlineto
          143 62 rlineto
          44 vlineto
          -143 -62 rlineto
          endchar
        </CharString>
        <CharString name="M">
          222 82 687 rmoveto
          -687 45 591 vlineto
          265 -591 rlineto
          36 hlineto
          264 593 rlineto
          -593 45 687 -47 vlineto
          -280 -627 -280 627 rlineto
          endchar
        </CharString>
        <CharString name="N">
          69 584 701 39 callgsubr
          endchar
        </CharString>
        <CharString name="NULL">
          -598 endchar
        </CharString>
        <CharString name="Nacute">
          69 584 701 39 callgsubr
          -164 899 -78 callgsubr
          endchar
        </CharString>
        <CharString name="Ncaron">
          69 584 701 39 callgsubr
          -122 875 -59 callsubr
        </CharString>
        <CharString name="Ntilde">
          69 584 701 39 callgsubr
          -364 749 rmoveto
          -93 callsubr
          endchar
        </CharString>
        <CharString name="O">
          -101 callgsubr
          endchar
        </CharString>
        <CharString name="OE">
          501 735 665 rmoveto
          310 37 -355 -206 hlineto
          130 -39 -117 82 -142 hhcurveto
          -193 291 callsubr
          -211 -210 145 -148 194 141 117 83 131 39 hvcurveto
          -206 355 37 -310 296 280 37 -280 vlineto
          -635 -20 rmoveto
          197 130 121 165 345 callsubr
          -121 -197 -196 -129 -121 -165 64 callgsubr
          vhcurveto
          endchar
        </CharString>
        <CharString name="Oacute">
          -101 callgsubr
          94 866 -78 callgsubr
          endchar
        </CharString>
        <CharString name="Ocircumflex">
          -101 callgsubr
          136 725 -44 callsubr
          endchar
        </CharString>
        <CharString name="Odieresis">
          -101 callgsubr
          -63 736 -96 callgsubr
          endchar
        </CharString>
        <CharString name="Ograve">
          -101 callgsubr
          -102 866 2 callgsubr
        </CharString>
        <CharString name="Ohungarumlaut">
          -101 callgsubr
          160 834 100 callsubr
        </CharString>
        <CharString name="Omacron">
          -101 callgsubr
          -154 799 149 callsubr
        </CharString>
        <CharString name="Oslash">
          192 395 -8 rmoveto
          196 145 148 210 102 -34 87 -57 62 hvcurveto
          93 101 rlineto
          -42 hlineto
          -72 -79 rlineto
          54 -60 -79 31 -90 hhcurveto
          247 callsubr
          -101 33 -86 57 -63 hvcurveto
          -92 -100 rlineto
          42 hlineto
          72 78 rlineto
          -55 59 80 -31 90 hhcurveto
          -295 358 rmoveto
          197 130 121 165 78 70 -27 -49 52 vhcurveto
          -422 -460 rlineto
          -46 54 -27 74 90 vvcurveto
          295 -317 rmoveto
          -78 -70 27 49 -53 hvcurveto
          422 460 rlineto
          46 -54 27 -74 -91 vvcurveto
          -196 -129 -121 -165 vhcurveto
          endchar
        </CharString>
        <CharString name="Otilde">
          -101 callgsubr
          -106 716 rmoveto
          -93 callsubr
          endchar
        </CharString>
        <CharString name="P">
          -52 277 347 212 callgsubr
          82 -161 vhcurveto
          -195 -702 45 308 150 hlineto
          155 75 74 122 hvcurveto
          endchar
        </CharString>
        <CharString name="Q">
          193 395 33 rmoveto
          157 callsubr
          345 callsubr
          -121 -197 -196 -129 -121 -165 hvcurveto
          -41 vmoveto
          39 37 6 11 34 hvcurveto
          178 -152 rlineto
          64 hlineto
          -198 169 rlineto
          113 56 74 118 150 vvcurveto
          211 -145 147 -196 247 callsubr
          -210 145 -148 196 vhcurveto
          endchar
        </CharString>
        <CharString name="R">
          -37 462 501 -39 callgsubr
          endchar
        </CharString>
        <CharString name="Racute">
          -37 462 501 -39 callgsubr
          112 197 -78 callgsubr
          endchar
        </CharString>
        <CharString name="Rcaron">
          -37 462 501 -39 callgsubr
          154 173 -59 callsubr
        </CharString>
        <CharString name="S">
          -44 285 -7 rmoveto
          144 72 94 90 hvcurveto
          -59 callgsubr
          -98 8 82 -82 141 hhcurveto
          endchar
        </CharString>
        <CharString name="Sacute">
          -44 285 -7 rmoveto
          144 72 94 90 hvcurveto
          -59 callgsubr
          -98 8 82 -82 141 hhcurveto
          78 906 -78 callgsubr
          endchar
        </CharString>
        <CharString name="Scaron">
          -44 285 -7 rmoveto
          144 72 94 90 hvcurveto
          -59 callgsubr
          -98 8 82 -82 141 hhcurveto
          120 882 -59 callsubr
        </CharString>
        <CharString name="T">
          -103 25 702 245 callsubr
          endchar
        </CharString>
        <CharString name="Tcaron">
          -103 25 702 245 callsubr
          -94 173 -59 callsubr
        </CharString>
        <CharString name="Thorn">
          -52 277 194 212 callgsubr
          81 -161 vhcurveto
          -150 154 -45 -702 45 154 150 hlineto
          155 75 75 122 hvcurveto
          endchar
        </CharString>
        <CharString name="U">
          -85 callsubr
          endchar
        </CharString>
        <CharString name="Uacute">
          -85 callsubr
          285 197 -78 callgsubr
          endchar
        </CharString>
        <CharString name="Ubreve">
          -85 callsubr
          326 169 -74 callsubr
          endchar
        </CharString>
        <CharString name="Ucircumflex">
          -85 callsubr
          327 56 -44 callsubr
          endchar
        </CharString>
        <CharString name="Udieresis">
          -85 callsubr
          128 67 -96 callgsubr
          endchar
        </CharString>
        <CharString name="Ugrave">
          -85 callsubr
          89 197 2 callgsubr
        </CharString>
        <CharString name="Uhungarumlaut">
          -85 callsubr
          351 165 100 callsubr
        </CharString>
        <CharString name="Umacron">
          -85 callsubr
          37 130 149 callsubr
        </CharString>
        <CharString name="Uogonek">
          47 78 702 rmoveto
          -438 vlineto
          -180 95 -82 130 -8 vhcurveto
          -63 -31 -23 -36 -40 vvcurveto
          -58 47 -25 54 22 24 5 8 22 vhcurveto
          34 vlineto
          -8 -22 -22 -5 -20 hhcurveto
          -38 -27 17 36 28 16 27 50 23 hvcurveto
          64 30 rlineto
          107 22 73 83 160 vvcurveto
          438 -45 -438 vlineto
          -167 -82 -64 -116 -116 -85 64 167 vhcurveto
          438 vlineto
          endchar
        </CharString>
        <CharString name="Uring">
          -85 callsubr
          104 149 50 callsubr
        </CharString>
        <CharString name="Utilde">
          -85 callsubr
          85 47 rmoveto
          -93 callsubr
          endchar
        </CharString>
        <CharString name="V">
          41 27 702 rmoveto
          267 -702 rlineto
          50 hlineto
          268 702 rlineto
          -50 hlineto
          -244 -645 -241 645 rlineto
          endchar
        </CharString>
        <CharString name="W">
          -45 callsubr
          endchar
        </CharString>
        <CharString name="Wacute">
          -45 callsubr
          562 213 -78 callgsubr
          endchar
        </CharString>
        <CharString name="Wcircumflex">
          -45 callsubr
          511 72 -44 callsubr
          endchar
        </CharString>
        <CharString name="Wdieresis">
          -45 callsubr
          311 82 -96 callgsubr
          endchar
        </CharString>
        <CharString name="Wgrave">
          -45 callsubr
          202 212 2 callgsubr
        </CharString>
        <CharString name="X">
          -55 456 hmoveto
          51 hlineto
          -211 351 212 351 rlineto
          -51 hlineto
          -184 -312 -187 312 rlineto
          -51 hlineto
          209 -348 -209 -354 rlineto
          51 hlineto
          181 315 rlineto
          endchar
        </CharString>
        <CharString name="Y">
          -23 callgsubr
          endchar
        </CharString>
        <CharString name="Yacute">
          -23 callgsubr
          280 197 -78 callgsubr
          endchar
        </CharString>
        <CharString name="Ycircumflex">
          -23 callgsubr
          322 56 -44 callsubr
          endchar
        </CharString>
        <CharString name="Ydieresis">
          -23 callgsubr
          123 67 -96 callgsubr
          endchar
        </CharString>
        <CharString name="Ygrave">
          -23 callgsubr
          84 197 2 callgsubr
        </CharString>
        <CharString name="Z">
          74 callgsubr
          endchar
        </CharString>
        <CharString name="Zacute">
          74 callgsubr
          249 859 -78 callgsubr
          endchar
        </CharString>
        <CharString name="Zcaron">
          74 callgsubr
          291 835 -59 callsubr
        </CharString>
        <CharString name="Zdotaccent">
          74 callgsubr
          163 712 -34 callsubr
        </CharString>
        <CharString name="a">
          -100 callsubr
          endchar
        </CharString>
        <CharString name="aacute">
          -100 callsubr
          -121 483 -78 callgsubr
          endchar
        </CharString>
        <CharString name="abreve">
          -100 callsubr
          -81 455 -74 callsubr
          endchar
        </CharString>
        <CharString name="acircumflex">
          -100 callsubr
          -79 342 -44 callsubr
          endchar
        </CharString>
        <CharString name="acute">
          -338 228 755 -78 callgsubr
          endchar
        </CharString>
        <CharString name="adieresis">
          -100 callsubr
          -278 353 -96 callgsubr
          endchar
        </CharString>
        <CharString name="ae">
          524 -22 callgsubr
          endchar
        </CharString>
        <CharString name="agrave">
          -100 callsubr
          -317 483 2 callgsubr
        </CharString>
        <CharString name="amacron">
          -100 callsubr
          -369 416 149 callsubr
        </CharString>
        <CharString name="ampersand">
          75 337 719 rmoveto
          -110 -55 -75 -76 -69 35 -44 42 -47 hvcurveto
          25 -27 rlineto
          7 -15 -18 4 -20 hhcurveto
          -98 -84 -69 -127 -127 93 -76 107 107 80 77 104 4 hvcurveto
          10 0 9 -1 8 vhcurveto
          180 -201 rlineto
          54 hlineto
          -388 442 rlineto
          -34 39 -24 32 54 vvcurveto
          59 42 54 78 78 48 -50 -78 -9 -1 -10 -2 -10 vhcurveto
          45 hlineto
          2 11 1 12 11 vvcurveto
          80 -52 82 -119 vhcurveto
          -257 -522 rmoveto
          102 65 55 80 82 84 -71 -97 -88 -64 -66 -87 -85 -75 61 104 vhcurveto
          endchar
        </CharString>
        <CharString name="aogonek">
          75 54 272 rmoveto
          204 callsubr
          83 30 vhcurveto
          -131 vlineto
          -30 -13 -31 callgsubr
          66 31 rlineto
          -87 callsubr
          endchar
        </CharString>
        <CharString name="apostrophemod.ss01">
          -462 100 756 rmoveto
          149 callgsubr
        </CharString>
        <CharString name="approxequal">
          -148 39 244 rmoveto
          71 callgsubr
          188 vmoveto
          71 callgsubr
          endchar
        </CharString>
        <CharString name="aring">
          -100 callsubr
          -302 435 50 callsubr
        </CharString>
        <CharString name="asciicircum">
          -19 291 628 rmoveto
          203 -456 rlineto
          46 hlineto
          -232 514 rlineto
          -37 hlineto
          -232 -514 rlineto
          46 hlineto
          endchar
        </CharString>
        <CharString name="asciitilde">
          -148 39 268 rmoveto
          71 callgsubr
          endchar
        </CharString>
        <CharString name="asterisk">
          -149 242 567 rmoveto
          17 163 rlineto
          -62 hlineto
          14 -163 -133 95 -32 -56 153 -61 -153 -61 31 -56 134 96 -14 -164 rlineto
          62 hlineto
          -17 164 131 -93 29 54 -155 60 155 61 -31 54 rlineto
          endchar
        </CharString>
        <CharString name="at">
          471 733 305 rmoveto
          -164 -4 -105 -113 -128 hhcurveto
          -117 -66 98 120 4 hvcurveto
          152 4 95 116 133 hhcurveto
          129 60 -93 -116 -5 hvcurveto
          -461 -58 rmoveto
          -153 -6 93 -105 130 hhcurveto
          103 75 57 84 46 hvcurveto
          -102 -23 43 -39 70 hhcurveto
          116 100 143 199 253 -152 184 -290 -335 -192 -254 -286 -313 194 -154 283 -5 hvcurveto
          8 39 rlineto
          -258 6 -180 132 295 vvcurveto
          280 182 222 294 260 140 -163 -236 -186 -82 -117 -85 -41 -27 18 60 10 vhcurveto
          27 164 rlineto
          148 25 -75 137 -171 hhcurveto
          -151 -125 -128 -180 -6 hvcurveto
          endchar
        </CharString>
        <CharString name="atilde">
          -100 callsubr
          -321 333 rmoveto
          -93 callsubr
          endchar
        </CharString>
        <CharString name="b">
          75 127 400 rmoveto
          340 -45 -740 45 142 vlineto
          -83 30 81 -67 119 207 callsubr
          -118 -80 -66 -84 -32 hvcurveto
          446 -128 123 callsubr
        </CharString>
        <CharString name="backslash">
          -59 450 -161 rmoveto
          -338 1098 rlineto
          -46 hlineto
          339 -1098 rlineto
          endchar
        </CharString>
        <CharString name="bar">
          -372 135 784 rmoveto
          -45 -877 45 hlineto
          endchar
        </CharString>
        <CharString name="braceleft">
          -239 100 371 rmoveto
          2 vlineto
          82 18 34 66 70 68 -24 41 94 vvcurveto
          116 65 77 56 31 vhcurveto
          7 -46 vlineto
          -32 -18 -87 -67 -146 -80 24 -57 -62 vvcurveto
          -45 -8 -71 -101 -28 vhcurveto
          -30 vlineto
          101 -29 8 -70 -45 -62 -24 -57 -80 vvcurveto
          -146 87 -67 32 -18 vhcurveto
          46 7 hlineto
          -56 31 -65 77 116 94 24 41 68 vvcurveto
          70 -33 66 -83 18 vhcurveto
          endchar
        </CharString>
        <CharString name="braceright">
          -233 267 373 rmoveto
          -2 vlineto
          -83 -18 -33 -66 -70 -68 24 -41 -94 vvcurveto
          -116 -65 -77 -56 -31 vhcurveto
          -7 46 vlineto
          32 18 87 67 146 80 -24 57 62 vvcurveto
          45 7 70 102 29 vhcurveto
          30 vlineto
          -102 28 -7 71 45 62 24 57 80 vvcurveto
          146 -87 67 -32 18 vhcurveto
          -46 -7 hlineto
          56 -31 65 -77 -116 -94 -24 -41 -68 vvcurveto
          -70 34 -66 82 -18 vhcurveto
          endchar
        </CharString>
        <CharString name="bracketleft">
          -308 102 937 rmoveto
          -1098 124 39 -81 1021 81 38 vlineto
          endchar
        </CharString>
        <CharString name="bracketright">
          -309 188 -161 rmoveto
          1098 -125 -38 82 -1021 -82 -39 vlineto
          endchar
        </CharString>
        <CharString name="breve">
          -281 285 727 -74 callsubr
          endchar
        </CharString>
        <CharString name="brokenbar">
          -372 135 268 rmoveto
          -45 -361 45 hlineto
          -45 517 rmoveto
          45 360 -45 hlineto
          endchar
        </CharString>
        <CharString name="bullet">
          -287 155 227 rmoveto
          60 47 47 59 60 -47 48 -60 -59 -47 -48 -60 -59 47 -47 59 hvcurveto
          endchar
        </CharString>
        <CharString name="c">
          -41 callsubr
          endchar
        </CharString>
        <CharString name="cacute">
          -41 callsubr
          345 483 -78 callgsubr
          endchar
        </CharString>
        <CharString name="caron">
          -277 289 731 -59 callsubr
        </CharString>
        <CharString name="ccaron">
          -41 callsubr
          386 459 -59 callsubr
        </CharString>
        <CharString name="ccedilla">
          23 54 272 rmoveto
          -166 101 -105 142 -8 vhcurveto
          -102 73 callsubr
          70 vlineto
          130 6 84 76 20 107 rrcurveto
          -47 hlineto
          -94 -18 -78 -56 -106 hhcurveto
          -116 -101 77 164 163 101 77 116 106 78 -57 -93 18 hvcurveto
          47 hlineto
          113 -21 -90 75 -138 hhcurveto
          -153 -110 -105 -173 hvcurveto
          endchar
        </CharString>
        <CharString name="cdotaccent">
          -41 callsubr
          258 337 -34 callsubr
        </CharString>
        <CharString name="cedilla">
          -341 98 -78 rmoveto
          85 -35 -116 73 callsubr
          endchar
        </CharString>
        <CharString name="cent">
          17 286 619 rmoveto
          -102 vlineto
          -136 -9 -88 -97 -144 vvcurveto
          -144 88 -97 136 -9 vhcurveto
          -109 32 108 vlineto
          124 4 80 77 16 106 rrcurveto
          -43 hlineto
          -92 -16 -71 -56 -100 hhcurveto
          -109 -94 68 144 144 94 69 109 100 71 -57 -91 16 hvcurveto
          43 hlineto
          -16 105 -80 77 -124 4 rrcurveto
          101 vlineto
          endchar
        </CharString>
        <CharString name="circumflex">
          -277 289 614 -44 callsubr
          endchar
        </CharString>
        <CharString name="colon">
          -448 75 271 callsubr
          444 vmoveto
          185 callsubr
        </CharString>
        <CharString name="colon.ss01">
          -441 41 71 279 callgsubr
          -71 445 279 callgsubr
          endchar
        </CharString>
        <CharString name="comma">
          -455 60 105 199 callsubr
        </CharString>
        <CharString name="comma.ss01">
          -455 231 callsubr
          endchar
        </CharString>
        <CharString name="copyright">
          201 743 351 rmoveto
          -206 -139 -146 -204 -204 -140 146 206 206 140 146 204 204 139 -146 -206 vhcurveto
          -659 hmoveto
          -189 122 -138 194 193 122 138 189 190 -122 136 -193 -194 -122 -136 -190 vhcurveto
          102 1 rmoveto
          -153 100 -84 116 94 82 55 98 27 vhcurveto
          -43 hlineto
          -77 -25 -63 -39 -72 hhcurveto
          -92 -82 67 131 134 82 67 92 71 65 -40 -77 24 hvcurveto
          43 hlineto
          100 -27 -82 53 -94 hhcurveto
          -116 -100 -83 -152 hvcurveto
          endchar
        </CharString>
        <CharString name="currency">
          -84 256 520 rmoveto
          64 58 -54 -89 -91 -59 -52 -63 -68 -52 52 91 89 53 54 67 hvcurveto
          164 -337 rmoveto
          23 23 -61 60 rlineto
          22 29 13 38 44 vvcurveto
          45 -13 38 -22 29 vhcurveto
          61 61 -23 23 -61 -60 rlineto
          24 -28 -36 14 -39 hhcurveto
          -40 -35 -14 -24 -28 hvcurveto
          -60 60 -24 -23 62 -61 rlineto
          -21 -29 -13 -38 -45 vvcurveto
          -44 12 -38 21 -29 vhcurveto
          -61 -60 24 -23 58 59 rlineto
          -25 27 37 -14 41 hhcurveto
          39 37 14 25 29 hvcurveto
          endchar
        </CharString>
        <CharString name="d">
          75 54 272 rmoveto
          -171 110 -109 152 119 81 67 85 30 vhcurveto
          -144 45 740 -45 -339 34 callsubr
        </CharString>
        <CharString name="dagger">
          -128 435 543 rmoveto
          -182 270 callsubr
          -4 -765 rlineto
          43 hlineto
          -4 765 182 -4 rlineto
          endchar
        </CharString>
        <CharString name="daggerdbl">
          -127 436 505 rmoveto
          38 vlineto
          -183 270 callsubr
          rlineto
          -498 vlineto
          -183 6 rlineto
          -39 vlineto
          183 4 -4 -238 rlineto
          43 hlineto
          -4 238 183 -4 rlineto
          39 vlineto
          -183 -6 rlineto
          498 vlineto
          endchar
        </CharString>
        <CharString name="danda">
          -352 376 callgsubr
          endchar
        </CharString>
        <CharString name="dcaron">
          102 714 740 rmoveto
          -69 280 callgsubr
          -4 31 hvcurveto
          -660 -468 rmoveto
          -171 110 -109 152 119 81 67 85 30 vhcurveto
          -144 45 740 -45 -339 34 callsubr
        </CharString>
        <CharString name="dcroat">
          70 54 272 rmoveto
          -171 110 -109 152 119 81 67 85 30 vhcurveto
          -144 45 634 65 31 -65 75 -45 -75 -172 -31 172 -233 34 callsubr
        </CharString>
        <CharString name="degree">
          -223 29 521 rmoveto
          -105 64 -69 94 94 64 69 105 104 -64 69 -93 -94 -65 -69 -104 vhcurveto
          278 hmoveto
          -92 -50 -51 -70 -71 -48 51 92 90 49 52 70 71 49 -52 -90 vhcurveto
          endchar
        </CharString>
        <CharString name="dieresis">
          -281 87 625 -96 callgsubr
          endchar
        </CharString>
        <CharString name="divide">
          376 callsubr
          -290 -195 rmoveto
          -72 71 72 vlineto
          -71 424 279 callgsubr
          endchar
        </CharString>
        <CharString name="divide.ss01">
          376 callsubr
          -253 -272 rmoveto
          -36 callgsubr
          429 vmoveto
          185 callsubr
        </CharString>
        <CharString name="dollar">
          -32 262 796 rmoveto
          -87 vlineto
          -129 -73 -77 -100 -133 102 -30 100 -29 hvcurveto
          -307 vlineto
          -103 11 -43 76 -7 53 rrcurveto
          -47 hlineto
          7 -91 76 -77 117 -11 rrcurveto
          -81 30 80 vlineto
          142 60 97 87 138 -102 31 -100 28 hvcurveto
          295 vlineto
          90 -11 41 -65 10 -45 rrcurveto
          47 hlineto
          -13 76 -61 73 -114 11 rrcurveto
          88 vlineto
          157 -621 rmoveto
          -78 -52 -65 -105 -1 vhcurveto
          301 vlineto
          83 -25 74 -31 -101 vvcurveto
          -343 359 rmoveto
          90 64 47 92 vhcurveto
          -289 vlineto
          -83 25 -73 29 98 vvcurveto
          endchar
        </CharString>
        <CharString name="dotaccent">
          -448 75 625 -34 callsubr
        </CharString>
        <CharString name="dotlessi">
          58 callgsubr
          endchar
        </CharString>
        <CharString name="dottedcircle">
          53 557 409 -35 callgsubr
          -376 -286 -35 callgsubr
          98 -76 -35 callgsubr
          -143 189 -35 callgsubr
          267 -203 -35 callgsubr
          -252 324 -35 callgsubr
          367 -278 -35 callgsubr
          -291 377 -35 callgsubr
          364 -281 -35 callgsubr
          -247 323 -35 callgsubr
          257 -203 -35 callgsubr
          -136 188 -35 callgsubr
          endchar
        </CharString>
        <CharString name="doubledanda">
          -177 376 callgsubr
          175 742 rmoveto
          -41 -742 41 hlineto
          endchar
        </CharString>
        <CharString name="dvA">
          223 290 433 rmoveto
          -51 callsubr
          249 callsubr
          -341 -256 vlineto
          -48 callgsubr
          endchar
        </CharString>
        <CharString name="dvAA">
          493 290 433 rmoveto
          -51 callsubr
          40 350 callsubr
          -471 -341 -256 vlineto
          -48 callgsubr
          endchar
        </CharString>
        <CharString name="dvAI">
          53 348 19 rmoveto
          141 82 86 144 hvcurveto
          37 callgsubr
          -128 101 callgsubr
          -548 -35 274 callsubr
          vhcurveto
          endchar
        </CharString>
        <CharString name="dvAU">
          502 701 hmoveto
          350 callsubr
          -154 vlineto
          272 -138 -44 12 -118 38 callgsubr
          -280 -341 -256 hlineto
          -48 callgsubr
          -51 callsubr
          vlineto
          endchar
        </CharString>
        <CharString name="dvAbbreviationsign">
          -95 254 514 rmoveto
          -96 -69 -66 -92 -92 69 -66 96 94 66 65 91 94 -66 66 -94 hvcurveto
          -29 vmoveto
          76 54 -54 -77 -75 -54 -52 -76 -79 -56 53 76 76 56 53 79 hvcurveto
          endchar
        </CharString>
        <CharString name="dvAcandra">
          223 290 433 rmoveto
          -51 callsubr
          249 callsubr
          -341 -256 vlineto
          -48 callgsubr
          400 416 19 callsubr
        </CharString>
        <CharString name="dvAnusvara">
          -598 -139 848 rmoveto
          -104 callsubr
          endchar
        </CharString>
        <CharString name="dvAnusvara.amI">
          -598 117 848 rmoveto
          -104 callsubr
          endchar
        </CharString>
        <CharString name="dvAvagraha">
          -34 87 70 rmoveto
          239 hlineto
          96 38 54 56 hvcurveto
          153 -277 95 132 vvcurveto
          62 50 15 57 vhcurveto
          182 35 -190 hlineto
          -73 -67 -25 -83 hvcurveto
          -158 277 -94 -128 vvcurveto
          -43 -33 -35 -67 vhcurveto
          -232 hlineto
          endchar
        </CharString>
        <CharString name="dvB">
          -168 325 110 rmoveto
          151 89 111 126 108 -74 130 -168 -41 callgsubr
          hvcurveto
          -1 444 -86 callgsubr
          -356 151 rmoveto
          598 35 -598 hlineto
          358 -599 rmoveto
          -112 -98 -94 callsubr
          endchar
        </CharString>
        <CharString name="dvBA">
          92 531 hmoveto
          39 -34 callgsubr
          -754 -35 563 297 callgsubr
          -133 -106 -92 -147 154 callgsubr
          hvcurveto
          -206 315 -24 callgsubr
        </CharString>
        <CharString name="dvBH">
          -105 -24 callsubr
          195 34 -195 25 callgsubr
        </CharString>
        <CharString name="dvBHA">
          163 253 159 rmoveto
          -73 -53 50 77 78 56 50 81 hvcurveto
          112 -97 hlineto
          -101 -47 -57 -76 vhcurveto
          -35 vmoveto
          101 60 66 129 hvcurveto
          95 187 -414 41 705 151 35 -192 -292 -187 25 callgsubr
        </CharString>
        <CharString name="dvBH_LA">
          798 -24 callsubr
          174 vlineto
          -7 -25 -4 -28 -30 vvcurveto
          -135 76 -104 151 10 11 1 1 12 vhcurveto
          36 vlineto
          -1 -11 -10 -1 -9 hhcurveto
          -126 -63 88 115 106 54 81 106 100 235 callsubr
          102 50 -84 -103 -115 -62 -88 -126 -10 44 callsubr
          12 11 -1 11 hhcurveto
          281 callsubr
          -882 -35 565 270 callgsubr
          -83 -60 -40 -66 -30 hvcurveto
          -187 101 hlineto
          33 callgsubr
        </CharString>
        <CharString name="dvBH_NA">
          679 -24 callsubr
          183 vlineto
          -13 -25 -7 -30 -34 vvcurveto
          -106 78 -74 113 374 callgsubr
          -37 53 -46 26 vhcurveto
          255 callgsubr
          -75 callsubr
          -732 -35 540 -196 -345 hlineto
          -63 -54 -22 -39 -34 hvcurveto
          -207 101 hlineto
          -69 callgsubr
          515 56 rmoveto
          -91 -62 296 callgsubr
        </CharString>
        <CharString name="dvBH_R">
          -105 151 callsubr
          -35 vmoveto
          97 64 69 126 hvcurveto
          76 195 34 -195 100 vlineto
          100 callgsubr
          -104 250 callsubr
          -58 -95 -90 66 -62 99 hvcurveto
          17 -209 rmoveto
          48 hlineto
          291 292 rlineto
          43 vlineto
          endchar
        </CharString>
        <CharString name="dvBH_RA">
          163 151 callsubr
          -35 vmoveto
          97 64 349 callgsubr
          -350 rlineto
          48 hlineto
          306 308 rlineto
          -243 38 -98 callgsubr
          -190 -291 -209 100 vlineto
          100 callgsubr
          -104 250 callsubr
          -58 -95 -90 66 -62 99 hvcurveto
          endchar
        </CharString>
        <CharString name="dvBH_R_YA">
          618 151 callsubr
          581 -15 -3 callsubr
          -581 -20 rmoveto
          97 64 69 126 hvcurveto
          76 153 -4 vlineto
          -58 11 -51 20 -42 vhcurveto
          -328 -325 rlineto
          48 hlineto
          297 297 rlineto
          -65 43 72 -38 98 hhcurveto
          322 callgsubr
          hvcurveto
          -262 40 705 151 35 -696 -35 231 -82 vlineto
          -137 -85 -38 -106 vhcurveto
          -178 101 hlineto
          100 callgsubr
          -105 250 callsubr
          -57 -95 -90 66 -62 99 hvcurveto
          endchar
        </CharString>
        <CharString name="dvBH_VA">
          578 -24 callsubr
          171 245 callgsubr
          112 68 59 73 29 vhcurveto
          -247 -30 callsubr
          -653 -35 462 -258 vlineto
          73 -28 -68 59 -113 319 callgsubr
          -182 101 hlineto
          -69 callgsubr
          98 callgsubr
        </CharString>
        <CharString name="dvBH_YA">
          618 -24 callsubr
          153 -3 vlineto
          168 callgsubr
          322 callgsubr
          vhcurveto
          -262 40 705 151 35 -696 -35 231 -82 vlineto
          -137 -85 -38 -106 vhcurveto
          -178 101 hlineto
          -69 callgsubr
          581 40 -3 callsubr
          endchar
        </CharString>
        <CharString name="dvB_BA">
          543 324 554 -86 callgsubr
          658 -554 rmoveto
          39 -34 callgsubr
          -1205 -35 1014 297 callgsubr
          -103 -86 -55 -94 -34 hvcurveto
          80 -29 -72 70 -123 hhcurveto
          -41 callgsubr
          113 78 62 85 31 hvcurveto
          -93 34 89 -54 103 hhcurveto
          109 71 59 71 29 hvcurveto
          -656 -99 rmoveto
          -112 -98 -94 callsubr
          452 1 -45 callgsubr
          -2 412 rmoveto
          142 65 -110 -97 -43 -14 -50 -31 -39 hvcurveto
          -307 286 rlineto
          34 38 51 19 56 hhcurveto
          endchar
        </CharString>
        <CharString name="dvB_BHA">
          600 690 122 callsubr
          -106 -19 -17 -3 -6 -14 vhcurveto
          -680 -35 679 1 hlineto
          9 -1 rlineto
          5 13 14 262 callgsubr
          -112 vlineto
          -60 -50 -21 -39 -30 hvcurveto
          97 -16 -74 100 -147 hhcurveto
          -41 callgsubr
          101 72 50 70 37 hvcurveto
          -65 20 57 -41 78 hhcurveto
          -366 430 -86 callgsubr
          2 -413 rmoveto
          -112 -98 -94 callsubr
          endchar
        </CharString>
        <CharString name="dvB_BH_RA">
          623 324 554 -86 callgsubr
          2 -413 rmoveto
          -112 -98 -94 callsubr
          366 38 rmoveto
          -72 -54 46 71 73 57 46 80 hvcurveto
          112 -78 356 callsubr
          372 -179 rmoveto
          38 -98 callgsubr
          -191 -291 -209 100 hlineto
          225 callsubr
          -20 -17 -3 -6 -15 vhcurveto
          -680 -35 690 hlineto
          5 13 14 3 16 hhcurveto
          80 34 -62 -98 hvcurveto
          -104 -112 vlineto
          -62 -51 -21 -38 -31 hvcurveto
          97 -16 -74 98 -146 hhcurveto
          -41 callgsubr
          104 74 53 74 36 hvcurveto
          -57 22 56 -36 76 hhcurveto
          330 callsubr
          -350 rlineto
          49 hlineto
          306 308 rlineto
          endchar
        </CharString>
        <CharString name="dvB_DA">
          462 973 104 callgsubr
          -1124 -35 922 -127 -93 hlineto
          -112 -99 -45 -96 -38 hvcurveto
          79 -30 -73 69 -122 hhcurveto
          -41 callgsubr
          111 78 60 83 33 hvcurveto
          -84 31 75 -51 103 hhcurveto
          81 69 40 57 27 hvcurveto
          -221 vlineto
          -607 147 rmoveto
          -112 -98 -94 callsubr
          -2 413 -86 callgsubr
          endchar
        </CharString>
        <CharString name="dvB_DHA">
          529 209 callgsubr
          411 -31 rmoveto
          109 86 56 87 37 hvcurveto
          -253 -75 callsubr
          -192 191 callgsubr
          -96 -81 43 95 160 callsubr
          -21 384 callsubr
          vhcurveto
          -655 -35 597 127 callsubr
          -55 -6 -56 -40 -12 -69 rrcurveto
          -1 hlineto
          -5 -34 -14 -34 -23 -29 -308 287 rcurveline
          35 38 52 19 56 hhcurveto
          29 24 -4 -7 22 hvcurveto
          31 vlineto
          7 -23 -27 4 -27 hhcurveto
          -135 -107 -92 -149 -148 113 -86 132 98 73 49 72 37 hvcurveto
          -80 23 82 -41 100 hhcurveto
          endchar
        </CharString>
        <CharString name="dvB_DH_VA">
          979 209 callgsubr
          1131 564 rmoveto
          -60 callsubr
          -638 -35 447 -256 hlineto
          -52 callgsubr
          -21 384 callsubr
          vhcurveto
          -655 -35 597 127 callsubr
          -55 -6 -56 -40 -12 -69 rrcurveto
          -1 hlineto
          -5 -34 -14 -34 -23 -29 -308 287 rcurveline
          35 38 52 19 56 hhcurveto
          29 24 -4 -7 22 hvcurveto
          31 vlineto
          7 -23 -27 4 -27 hhcurveto
          -135 -107 -92 -149 -148 113 -86 132 98 73 49 72 37 hvcurveto
          -81 23 83 -41 106 hhcurveto
          129 81 58 109 32 hvcurveto
          159 callgsubr
          40 vlineto
          -241 35 callgsubr
        </CharString>
        <CharString name="dvB_JA">
          669 326 66 callsubr
          822 -141 -21 callgsubr
          -1331 -35 1140 -199 -273 -169 vlineto
          13 callsubr
          133 234 -470 vlineto
          -784 554 -86 callgsubr
          endchar
        </CharString>
        <CharString name="dvB_JHA">
          685 326 141 rmoveto
          -112 -98 74 129 57 17 47 29 35 hvcurveto
          306 -285 rlineto
          -34 -32 -46 -23 -64 hhcurveto
          380 176 rmoveto
          -71 -65 27 76 89 85 17 70 hvcurveto
          179 179 219 -388 hlineto
          -317 vmoveto
          -75 callsubr
          -1347 -35 897 -147 -153 hlineto
          -87 -95 -30 -107 hvcurveto
          -50 vlineto
          -52 -14 -58 -32 -45 vhcurveto
          -305 284 rlineto
          35 37 52 19 56 hhcurveto
          32 28 -6 -9 26 hvcurveto
          32 vlineto
          9 -26 -29 5 -32 hhcurveto
          -41 callgsubr
          145 77 104 125 11 hvcurveto
          -36 30 53 -17 57 hhcurveto
          59 hlineto
          111 60 -51 -84 -63 -43 -58 -103 -118 -60 68 74 -12 hvcurveto
          -35 -245 38 176 hlineto
          -27 11 51 -78 133 hhcurveto
          121 55 69 81 73 -36 43 -48 22 hvcurveto
          241 -1 rlineto
          endchar
        </CharString>
        <CharString name="dvB_J_YA">
          1127 324 554 -86 callgsubr
          2 -413 rmoveto
          -112 -98 -94 callsubr
          1017 23 150 callgsubr
          -1789 -35 1324 -82 vlineto
          -121 -85 -30 -113 vhcurveto
          -259 -135 hlineto
          13 callsubr
          101 201 vlineto
          -2 299 callsubr
          -184 94 -119 137 callgsubr
          endchar
        </CharString>
        <CharString name="dvB_JxA">
          680 1148 160 callgsubr
          -1331 -35 1140 -199 -273 -169 vlineto
          13 callsubr
          133 234 -470 vlineto
          -404 181 callgsubr
          -378 155 rmoveto
          -112 -98 -94 callsubr
          -2 413 -86 callgsubr
          endchar
        </CharString>
        <CharString name="dvB_LA">
          749 1041 92 rmoveto
          281 callsubr
          -1411 -35 1093 -152 vlineto
          -105 -8 -44 -83 -13 -71 rrcurveto
          42 callgsubr
          134 54 87 105 102 50 -84 -103 -115 -63 -88 -125 -10 44 callsubr
          12 11 -1 11 hhcurveto
          -715 49 rmoveto
          -112 -98 -94 callsubr
          -2 413 -86 callgsubr
          endchar
        </CharString>
        <CharString name="dvB_L_YA">
          1270 326 66 callsubr
          1160 23 344 callsubr
          86 140 288 callsubr
          89 375 callsubr
          104 254 callgsubr
          -1932 -35 1466 -100 vlineto
          -134 -79 -37 -107 -2 vhcurveto
          62 -17 -55 60 -93 hhcurveto
          -121 -50 -87 -76 -13 hvcurveto
          42 callgsubr
          137 56 84 108 90 42 -65 -47 7 vhcurveto
          -4 0 -5 -4 vvcurveto
          -160 94 -104 137 callgsubr
          -1384 554 -86 callgsubr
          endchar
        </CharString>
        <CharString name="dvB_NA">
          633 723 180 -103 callsubr
          389 341 callsubr
          -1295 -35 1104 251 callsubr
          -78 -62 -33 -58 -32 hvcurveto
          87 -25 -74 80 -132 hhcurveto
          -41 callgsubr
          111 77 59 82 33 hvcurveto
          -65 28 64 -41 84 292 callsubr
          -746 66 callsubr
          -2 413 -86 callgsubr
          endchar
        </CharString>
        <CharString name="dvB_R">
          -168 130 callgsubr
          598 35 -598 hlineto
          357 -630 rmoveto
          24 22 3 5 21 hvcurveto
          -185 -167 rlineto
          46 hlineto
          228 211 rlineto
          54 45 30 67 73 vvcurveto
          108 -74 130 -168 -41 callgsubr
          vhcurveto
          -1 444 -86 callgsubr
          2 -413 rmoveto
          -112 -98 -94 callsubr
          endchar
        </CharString>
        <CharString name="dvB_RA">
          91 483 170 rmoveto
          21 21 16 23 11 23 rrcurveto
          -237 39 -34 callgsubr
          -754 -35 563 200 callgsubr
          -133 -106 -92 -147 354 callsubr
          hvcurveto
          -186 -167 rlineto
          47 hlineto
          81 603 -24 callgsubr
        </CharString>
        <CharString name="dvB_SA">
          653 324 554 -86 callgsubr
          2 -413 rmoveto
          -112 -98 -94 callsubr
          536 459 385 callgsubr
          -293 -327 221 callsubr
          39 -412 rmoveto
          13 -39 -12 vlineto
          -73 callsubr
          174 520 -378 -11 callsubr
          -1315 -35 855 -105 vlineto
          -53 callsubr
          -78 hlineto
          90 -24 -74 85 -136 hhcurveto
          -41 callgsubr
          99 72 47 68 38 hvcurveto
          -19 vlineto
          -126 60 -89 123 224 callgsubr
          endchar
        </CharString>
        <CharString name="dvB_SHA">
          621 729 -9 258 callgsubr
          133 120 vlineto
          134 101 71 136 129 -79 74 -118 -22 384 callsubr
          hvcurveto
          -703 -35 708 hlineto
          294 callgsubr
          -119 hlineto
          102 -11 -75 109 -154 hhcurveto
          -41 callgsubr
          99 72 47 68 38 hvcurveto
          -16 vlineto
          -130 65 -88 130 vhcurveto
          -405 563 -86 callgsubr
          2 -413 rmoveto
          -112 -98 -94 callsubr
          733 -141 223 callsubr
          -192 hlineto
          endchar
        </CharString>
        <CharString name="dvB_TA">
          531 1010 hmoveto
          -34 callgsubr
          -1194 -35 1002 326 callgsubr
          -113 -89 -34 -73 -47 hvcurveto
          95 -18 -75 96 -144 hhcurveto
          -41 callgsubr
          92 69 41 61 40 hvcurveto
          -136 15 96 -74 147 hhcurveto
          259 callgsubr
          hlineto
          -644 66 callsubr
          -2 413 -86 callgsubr
          endchar
        </CharString>
        <CharString name="dvB_VA">
          533 770 41 callsubr
          159 callsubr
          -1195 -35 1004 -28 callsubr
          -99 -83 -53 -87 -33 hvcurveto
          78 -31 -73 68 -121 hhcurveto
          -41 callgsubr
          112 78 62 83 33 hvcurveto
          -89 33 81 -51 101 hhcurveto
          111 69 59 72 29 hvcurveto
          -246 39 705 vlineto
          -687 -151 -86 callgsubr
          2 -413 rmoveto
          -112 -98 -94 callsubr
          endchar
        </CharString>
        <CharString name="dvB_YA">
          573 1059 160 callgsubr
          -1242 -35 777 -82 vlineto
          40 callsubr
          -5 hlineto
          74 -33 -71 61 -116 hhcurveto
          -41 callgsubr
          120 81 70 93 28 hvcurveto
          5 callgsubr
        </CharString>
        <CharString name="dvC">
          -135 49 502 302 callsubr
          138 97 106 124 -4 vhcurveto
          241 callsubr
          -81 169 rmoveto
          630 35 -630 hlineto
          endchar
        </CharString>
        <CharString name="dvCA">
          147 callgsubr
          -74 297 callsubr
          -75 callsubr
          -788 vlineto
          endchar
        </CharString>
        <CharString name="dvCH">
          138 callsubr
          -142 129 -76 186 289 callgsubr
          60 callsubr
        </CharString>
        <CharString name="dvCHA">
          138 callsubr
          -142 129 -76 186 289 callgsubr
          132 -72 64 -83 9 vhcurveto
          149 236 35 -877 vlineto
          428 -673 -81 callgsubr
          endchar
        </CharString>
        <CharString name="dvCH_R">
          78 callsubr
          60 callsubr
        </CharString>
        <CharString name="dvCH_RA">
          78 callsubr
          132 -72 64 -83 9 vhcurveto
          149 236 35 -877 vlineto
          428 -673 -81 callgsubr
          endchar
        </CharString>
        <CharString name="dvCH_R_YA">
          -5 callsubr
          -404 -295 rmoveto
          45 hlineto
          -166 167 148 21 109 85 29 135 rlinecurve
          269 callgsubr
          151 35 -1440 -35 140 -125 vlineto
          75 callgsubr
          -140 125 -76 181 -2 vhcurveto
          -162 -162 rlineto
          331 callgsubr
        </CharString>
        <CharString name="dvCH_YA">
          -5 callsubr
          414 360 callgsubr
          -1440 -35 140 -125 vlineto
          75 callgsubr
          -142 129 -76 186 185 142 90 156 33 vhcurveto
          269 callgsubr
          vlineto
          endchar
        </CharString>
        <CharString name="dvC_CA">
          542 364 145 rmoveto
          -96 -84 192 callgsubr
          hvcurveto
          306 hlineto
          -69 -28 -42 -58 -9 -75 rrcurveto
          -102 -21 -57 -94 -121 hhcurveto
          809 560 rmoveto
          35 -1205 -35 1013 -366 vlineto
          136 callsubr
          -776 -34 217 hlineto
          -76 -32 -45 -68 -87 vvcurveto
          -132 98 -74 117 110 64 67 88 33 vhcurveto
          -99 23 87 -55 102 hhcurveto
          93 75 51 73 34 hvcurveto
          -234 331 callsubr
        </CharString>
        <CharString name="dvC_CHA">
          688 869 67 -26 callgsubr
          rrcurveto
          -118 21 122 -63 169 hhcurveto
          289 callgsubr
          hvcurveto
          endchar
        </CharString>
        <CharString name="dvC_CH_VA">
          688 858 -286 rmoveto
          -91 -70 57 100 96 64 60 111 4 hvcurveto
          0 vlineto
          53 53 8 17 47 hvcurveto
          -182 vlineto
          -71 -50 -89 -117 vhcurveto
          11 353 -26 callgsubr
          17 -95 82 -59 119 -20 rrcurveto
          -67 -24 -49 -61 -86 vvcurveto
          -115 83 -71 111 91 57 46 57 25 vhcurveto
          -168 37 455 vlineto
          107 50 68 97 133 vvcurveto
          endchar
        </CharString>
        <CharString name="dvC_MA">
          637 1075 448 64 callsubr
          -376 -546 -97 callsubr
          568 546 rmoveto
          35 -1299 -35 854 324 callgsubr
          -94 -68 -51 -87 -11 hvcurveto
          0 vlineto
          -90 -15 -59 -75 -106 hhcurveto
          -94 -78 192 callgsubr
          hvcurveto
          74 callsubr
          -132 93 -74 115 94 64 50 72 32 vhcurveto
          -66 20 57 -41 79 hhcurveto
          115 callgsubr
        </CharString>
        <CharString name="dvC_NA">
          642 729 180 -103 callsubr
          540 525 rmoveto
          35 -1301 -35 1110 251 callsubr
          -114 332 callsubr
          hvcurveto
          -3 384 callgsubr
          -8 -89 -64 -80 -106 -1 rrcurveto
          -93 -83 62 111 327 callgsubr
          hvcurveto
          74 callsubr
          -130 98 -73 115 98 70 57 81 27 vhcurveto
          -64 27 64 -41 84 43 callsubr
          hlineto
          endchar
        </CharString>
        <CharString name="dvC_R">
          -135 130 callgsubr
          630 35 -630 hlineto
          81 -238 302 callsubr
          20 19 2 4 18 vhcurveto
          -178 -161 rlineto
          47 hlineto
          221 204 54 42 32 67 -2 72 rlinecurve
          241 callsubr
          endchar
        </CharString>
        <CharString name="dvC_RA">
          147 callgsubr
          -73 118 290 callsubr
          -179 -162 rlineto
          47 hlineto
          227 208 24 20 19 25 13 28 rlinecurve
          -235 -75 callsubr
          -788 vlineto
          endchar
        </CharString>
        <CharString name="dvC_YA">
          617 833 164 14 callsubr
          -1279 -35 814 -82 vlineto
          -28 callgsubr
          -14 -12 vvcurveto
          0 vlineto
          -1 vlineto
          0 vlineto
          -1 vlineto
          -195 2 -98 -70 -106 hhcurveto
          -99 -81 192 callgsubr
          hvcurveto
          74 callsubr
          -132 95 -74 122 100 91 54 129 31 vhcurveto
          -102 35 83 -61 125 hhcurveto
          111 callsubr
          vlineto
          endchar
        </CharString>
        <CharString name="dvCandrabindu">
          -598 -141 822 31 callgsubr
        </CharString>
        <CharString name="dvD">
          10 599 -284 -16 callsubr
          -513 803 1 callsubr
          endchar
        </CharString>
        <CharString name="dvDA">
          10 -32 705 1 callsubr
          endchar
        </CharString>
        <CharString name="dvDA_mvR">
          -21 306 19 rmoveto
          136 101 65 146 hvcurveto
          -35 hlineto
          -122 -90 -56 -110 -103 -74 46 86 87 75 31 75 vhcurveto
          66 33 -65 hlineto
          -89 -62 42 65 79 69 26 77 hvcurveto
          178 158 155 35 -642 -35 449 -127 -150 hlineto
          -95 -81 -36 -97 -81 73 -40 57 -5 hvcurveto
          -2 vlineto
          -45 -3 -86 -33 -99 vvcurveto
          -106 88 -57 128 vhcurveto
          endchar
        </CharString>
        <CharString name="dvDD">
          -19 418 -290 -16 callsubr
          -332 809 -22 callsubr
          endchar
        </CharString>
        <CharString name="dvDDA">
          -19 -32 705 -22 callsubr
          endchar
        </CharString>
        <CharString name="dvDDH">
          35 450 -261 -16 callsubr
          -364 780 rmoveto
          -58 callsubr
          83 169 197 35 -697 hlineto
          endchar
        </CharString>
        <CharString name="dvDDHA">
          35 130 callgsubr
          -58 callsubr
          83 169 197 35 -697 hlineto
          endchar
        </CharString>
        <CharString name="dvDDH_DDHA">
          71 130 callgsubr
          469 -121 -84 hlineto
          -148 -115 -74 -156 -113 69 -76 108 -28 hvcurveto
          -103 -26 -74 -70 -121 vvcurveto
          -147 116 -82 165 146 84 64 92 82 -55 58 -102 -89 -60 -44 -75 -7 1 -11 1 -7 vhcurveto
          31 hlineto
          -1 6 -1 8 7 vvcurveto
          58 48 35 69 80 43 -47 -63 -73 -74 -53 -120 -148 -96 73 126 139 112 65 132 vhcurveto
          0 2 vlineto
          141 86 64 92 82 -54 58 -103 -89 -60 -43 -75 -8 1 -10 1 -8 hvcurveto
          31 hlineto
          -1 6 -1 9 6 vvcurveto
          58 48 35 69 80 43 -47 -63 -73 -74 -53 -120 337 callsubr
          113 151 227 35 -733 hlineto
          endchar
        </CharString>
        <CharString name="dvDDH_R">
          35 456 -336 -16 callsubr
          -370 855 9 callsubr
        </CharString>
        <CharString name="dvDDH_RA">
          35 -32 705 9 callsubr
        </CharString>
        <CharString name="dvDDH_VA">
          33 130 callgsubr
          460 -121 -75 hlineto
          -148 -115 -74 -156 -112 70 -77 102 -27 hvcurveto
          -78 -16 -62 -57 -96 vvcurveto
          -106 78 -65 100 84 54 45 56 24 vhcurveto
          -170 35 420 vlineto
          56 28 31 48 59 vvcurveto
          80 -54 56 -90 -87 -58 -43 -75 -8 1 -10 1 -8 vhcurveto
          31 hlineto
          -1 6 -1 9 6 vvcurveto
          58 46 35 68 66 43 -45 -62 -74 -66 -55 -111 337 callsubr
          104 151 198 35 -695 hlineto
          339 -908 rmoveto
          -81 -65 50 90 100 69 52 141 34 31 4 8 26 hvcurveto
          -145 vlineto
          -72 -45 -87 -110 vhcurveto
          endchar
        </CharString>
        <CharString name="dvDDH_YA">
          640 1079 222 callgsubr
          -1302 -35 -58 callsubr
          317 hlineto
          67 89 -7 -93 -69 -62 -23 -98 4 hvcurveto
          -17 hlineto
          -1 -11 -1 -12 -11 vvcurveto
          -137 67 -95 145 99 60 50 74 29 vhcurveto
          -182 -91 rmoveto
          -119 -61 75 116 hvcurveto
          6 0 6 5 vvcurveto
          105 -2 75 31 86 vvcurveto
          107 -92 22 -95 vhcurveto
          -242 138 611 -373 hlineto
          -126 -61 -91 -121 vhcurveto
          endchar
        </CharString>
        <CharString name="dvDDHxA">
          35 130 callgsubr
          -58 callsubr
          83 169 197 35 -697 hlineto
          374 -885 rmoveto
          -104 callsubr
          endchar
        </CharString>
        <CharString name="dvDD_DDA">
          -2 130 callgsubr
          449 -122 -132 hlineto
          -88 -81 -27 -93 -91 86 -19 105 96 80 -16 -90 -64 -47 -39 -100 -135 -62 60 73 -1 hvcurveto
          -39 hlineto
          -72 54 -54 73 -20 vhcurveto
          -64 -11 -46 -33 -64 vvcurveto
          -92 86 -18 107 99 75 -17 -89 -64 -47 -39 -100 -135 -62 60 74 -1 vhcurveto
          -39 hlineto
          -105 1 98 -60 138 hhcurveto
          124 62 52 82 108 -85 28 -123 -86 -74 8 72 66 58 24 122 125 63 51 83 109 -90 26 -119 -85 -72 8 73 76 74 14 61 hvcurveto
          165 152 172 35 -660 hlineto
          endchar
        </CharString>
        <CharString name="dvDD_DDHA">
          11 -19 705 rmoveto
          433 -122 -133 hlineto
          -87 -82 -27 -93 -91 86 -19 106 96 80 -16 -90 -64 -47 -39 -101 -135 -62 60 73 hvcurveto
          -39 hlineto
          -78 63 -57 82 -15 vhcurveto
          -101 -23 -73 -69 -122 vvcurveto
          -142 108 -79 154 134 78 65 92 81 -52 59 -96 -85 -56 -44 -75 -8 1 -10 1 -7 vhcurveto
          31 hlineto
          -1 5 -1 9 6 vvcurveto
          58 44 35 65 74 40 -46 -64 -73 -68 -53 -109 -137 -89 70 120 136 106 64 125 1 vhcurveto
          124 2 60 50 82 vvcurveto
          109 -90 26 -119 -84 -73 8 73 76 74 14 62 vhcurveto
          164 152 156 35 -627 hlineto
          endchar
        </CharString>
        <CharString name="dvDD_R">
          -19 406 -364 -16 callsubr
          -320 883 17 callgsubr
        </CharString>
        <CharString name="dvDD_RA">
          -19 -32 705 17 callgsubr
        </CharString>
        <CharString name="dvDD_VA">
          11 287 -170 rmoveto
          -82 -65 50 87 96 71 48 122 42 35 6 11 28 hvcurveto
          -159 vlineto
          -61 -45 -78 -106 vhcurveto
          -319 875 rmoveto
          446 -122 -133 hlineto
          -87 -82 -27 -93 -95 92 -17 98 98 80 -15 -91 -64 -47 -40 -101 -135 -62 61 73 hvcurveto
          -39 hlineto
          -76 59 -58 80 -18 vhcurveto
          -72 -16 -59 -53 -89 vvcurveto
          -103 77 -64 100 73 57 30 56 27 vhcurveto
          -155 35 419 vlineto
          30 23 15 33 41 vvcurveto
          107 -88 28 -117 1 vhcurveto
          -86 -75 7 74 77 75 14 61 hvcurveto
          164 152 189 35 -673 hlineto
          endchar
        </CharString>
        <CharString name="dvDD_YA">
          556 995 222 callgsubr
          -1218 -35 449 -148 -139 103 callgsubr
          320 hlineto
          69 94 -8 -92 -69 -62 -19 -97 hvcurveto
          -18 hlineto
          -1 -11 -1 -11 -11 vvcurveto
          -132 67 -91 146 98 60 53 78 29 vhcurveto
          -182 -98 rmoveto
          -119 -61 71 110 6 0 7 1 6 hvcurveto
          107 72 29 84 107 -97 22 -99 hvcurveto
          -161 148 539 -356 hlineto
          -135 -61 -99 -121 vhcurveto
          endchar
        </CharString>
        <CharString name="dvDDxA">
          -19 -32 705 -22 callsubr
          345 -914 rmoveto
          -104 callsubr
          endchar
        </CharString>
        <CharString name="dvDH">
          -169 315 109 rmoveto
          163 100 93 131 hvcurveto
          47 callsubr
        </CharString>
        <CharString name="dvDHA">
          102 310 110 rmoveto
          109 86 56 87 37 hvcurveto
          -253 -75 callsubr
          -192 191 callgsubr
          -96 -81 43 95 160 callsubr
          -97 -64 -68 -90 -7 callgsubr
          -113 93 -57 119 vhcurveto
          endchar
        </CharString>
        <CharString name="dvDH_MA">
          641 1271 705 rmoveto
          35 -728 -35 283 -257 -112 vlineto
          -100 -72 -58 -98 -3 hvcurveto
          -1 -4 rlineto
          -80 -12 -76 -63 -132 hhcurveto
          -96 89 callgsubr
          93 -57 122 124 79 47 68 33 vhcurveto
          -62 22 56 -38 77 hhcurveto
          100 61 66 129 hvcurveto
          95 214 -414 41 705 vlineto
          -417 -546 176 callgsubr
          -101 -46 -57 -77 vhcurveto
          376 289 342 callsubr
          endchar
        </CharString>
        <CharString name="dvDH_NA">
          637 1282 705 rmoveto
          35 -739 -35 547 355 callsubr
          -120 -14 -86 -60 -128 -6 callsubr
          94 -57 125 125 87 54 97 32 vhcurveto
          -70 25 67 -45 88 hhcurveto
          107 78 96 callsubr
          246 -474 41 705 hlineto
          -389 -525 rmoveto
          -92 141 callgsubr
          64 366 callgsubr
          endchar
        </CharString>
        <CharString name="dvDH_N_YA">
          1118 1747 705 rmoveto
          35 -1198 -35 733 219 callgsubr
          -343 hlineto
          -108 -77 -63 -102 -8 hvcurveto
          -105 -17 -77 -53 -133 -6 callsubr
          94 -57 125 123 80 45 79 35 vhcurveto
          -78 21 69 -50 94 hhcurveto
          374 callgsubr
          -37 387 callgsubr
          226 hlineto
          277 callsubr
          -182 94 -118 167 122 77 102 callsubr
          40 705 vlineto
          -857 -565 rmoveto
          -92 -61 60 85 88 63 106 callgsubr
          594 24 rmoveto
          -144 -84 100 162 hvcurveto
          3 0 3 3 vvcurveto
          128 2 89 46 135 vvcurveto
          29 callgsubr
          endchar
        </CharString>
        <CharString name="dvDH_R">
          -169 315 109 rmoveto
          33 30 4 7 28 hvcurveto
          -198 -180 rlineto
          48 hlineto
          240 223 rlineto
          53 40 29 59 71 vvcurveto
          47 callsubr
        </CharString>
        <CharString name="dvDH_RA">
          102 310 110 rmoveto
          25 24 3 5 22 hvcurveto
          -197 -178 rlineto
          48 hlineto
          247 227 27 23 22 29 14 34 rlinecurve
          -253 -75 callsubr
          -192 191 callgsubr
          -96 -81 43 95 160 callsubr
          -97 -64 -68 -90 -7 callgsubr
          -112 93 -58 119 vhcurveto
          endchar
        </CharString>
        <CharString name="dvDH_VA">
          503 1030 705 rmoveto
          -60 callsubr
          -638 -35 447 -256 hlineto
          -52 callgsubr
          -97 -64 -68 -90 -7 callgsubr
          202 callsubr
          40 vlineto
          -241 35 callgsubr
        </CharString>
        <CharString name="dvDH_YA">
          586 315 109 -55 callsubr
          -97 -64 -68 -90 -7 callgsubr
          -114 94 -57 123 vhcurveto
          487 55 rmoveto
          -144 333 callsubr
          240 callsubr
          128 89 62 callsubr
          endchar
        </CharString>
        <CharString name="dvD_BA">
          183 callgsubr
          78 60 39 64 27 vhcurveto
          131 callgsubr
          rlineto
          -41 -24 -44 -33 -66 184 callsubr
        </CharString>
        <CharString name="dvD_BHA">
          729 599 -284 -16 callsubr
          -513 803 1 callsubr
          850 -581 rmoveto
          -73 -53 50 77 78 56 50 81 hvcurveto
          112 -97 hlineto
          -101 -47 -57 -76 vhcurveto
          -35 vmoveto
          101 60 66 129 hvcurveto
          95 187 -414 41 705 151 35 -192 -292 -187 25 callgsubr
        </CharString>
        <CharString name="dvD_B_RA">
          183 callgsubr
          321 callsubr
          -144 -130 rlineto
          45 hlineto
          177 163 24 17 18 23 12 28 rlinecurve
          131 callgsubr
          -10 -18 -15 -17 -19 -13 rlinecurve
          -3 1 -9 -8 rlineto
          -12 -21 -26 -7 -31 184 callsubr
        </CharString>
        <CharString name="dvD_DA">
          -66 432 -37 rmoveto
          39 277 -35 hlineto
          -117 -72 -62 -108 -96 -63 45 88 69 47 49 97 vhcurveto
          102 32 -102 hlineto
          -101 -48 52 58 86 80 29 96 hvcurveto
          138 136 158 35 -609 -35 411 -106 hlineto
          1 -35 -36 0 -35 hhcurveto
          -115 -93 -35 -108 -75 54 -44 69 -9 hvcurveto
          -3 vlineto
          -67 -8 -53 -48 -80 vvcurveto
          -99 75 -63 115 106 60 52 54 21 vhcurveto
          endchar
        </CharString>
        <CharString name="dvD_DHA">
          293 130 callgsubr
          752 155 callgsubr
          -97 43 -73 74 -35 hvcurveto
          -104 -23 -78 -60 -92 hhcurveto
          293 callsubr
          69 48 64 119 -9 hvcurveto
          35 vlineto
          -144 11 -63 -78 -86 vvcurveto
          -94 64 -44 67 -13 vhcurveto
          68 callgsubr
        </CharString>
        <CharString name="dvD_GA">
          244 callgsubr
          -144 vlineto
          -56 -21 -60 -80 -75 -25 60 52 vhcurveto
          30 -36 -30 vlineto
          -76 41 -70 95 101 38 71 80 vhcurveto
          141 vlineto
          75 63 38 51 28 hvcurveto
          -454 39 544 -36 vlineto
          -104 -93 -41 -72 -102 -64 166 callgsubr
          -683 hlineto
          endchar
        </CharString>
        <CharString name="dvD_GHA">
          293 286 -24 rmoveto
          293 callsubr
          64 43 61 102 46 49 -14 -30 50 hvcurveto
          -31 -37 -18 -49 -61 vvcurveto
          -97 43 -73 74 -35 vhcurveto
          -104 -23 -78 -60 -92 hhcurveto
          -318 729 rmoveto
          752 -127 -93 hlineto
          -75 -70 -20 -43 -49 hvcurveto
          35 -52 -59 21 -59 hhcurveto
          -127 -55 -74 -80 -94 64 -44 67 -13 hvcurveto
          68 callgsubr
        </CharString>
        <CharString name="dvD_G_RA">
          244 callgsubr
          -76 vlineto
          -56 -21 -60 -80 -75 -25 59 52 vhcurveto
          30 -36 -30 vlineto
          -76 41 -69 95 101 38 70 81 vhcurveto
          73 vlineto
          75 63 38 51 28 hvcurveto
          -205 vlineto
          -300 -301 rlineto
          44 hlineto
          258 261 rlineto
          -209 37 544 -36 vlineto
          -104 -93 -41 -72 -102 -64 166 callgsubr
          -683 hlineto
          endchar
        </CharString>
        <CharString name="dvD_MA">
          191 283 -84 rmoveto
          -63 -45 42 63 67 49 42 69 hvcurveto
          97 -77 hlineto
          -88 -41 -49 -66 vhcurveto
          145 248 rmoveto
          153 -162 vlineto
          -83 -62 36 74 85 61 31 82 hvcurveto
          152 162 212 -541 hlineto
          -660 541 rmoveto
          408 -127 -115 hlineto
          -102 -79 -40 -111 -94 77 -50 105 hvcurveto
          128 -119 -95 hlineto
          -91 -66 -52 -91 -83 58 -56 87 89 56 59 115 hvcurveto
          74 200 -319 41 894 152 35 -853 vlineto
          endchar
        </CharString>
        <CharString name="dvD_NA">
          762 599 -284 -16 callsubr
          370 278 -103 callsubr
          -330 -186 rmoveto
          -71 callgsubr
          722 -196 -346 hlineto
          -89 callgsubr
          247 -474 -30 callsubr
          -1423 -35 470 -127 -93 hlineto
          238 callsubr
        </CharString>
        <CharString name="dvD_R">
          10 598 -284 -16 callsubr
          -512 803 26 callsubr
        </CharString>
        <CharString name="dvD_RA">
          10 -32 705 26 callsubr
        </CharString>
        <CharString name="dvD_VA">
          0 130 callgsubr
          458 -127 -102 hlineto
          -143 -96 -59 -128 -87 51 -64 81 -20 hvcurveto
          282 callgsubr
          37 230 callsubr
          -662 hlineto
          336 -816 227 callgsubr
          endchar
        </CharString>
        <CharString name="dvD_YA">
          96 282 80 rmoveto
          -105 -77 46 83 87 70 30 91 hvcurveto
          70 33 -67 hlineto
          -89 -75 30 79 88 85 21 78 hvcurveto
          91 128 181 -368 hlineto
          -181 -105 -76 -148 vhcurveto
          -289 625 rmoveto
          322 -106 hlineto
          1 -23 -23 0 -23 hhcurveto
          -89 -98 -29 -103 -94 85 -27 44 -4 hvcurveto
          -2 vlineto
          -44 -2 -84 -29 -104 vvcurveto
          -103 91 -55 125 131 92 51 109 36 vhcurveto
          -208 39 -34 callgsubr
          -733 vlineto
          endchar
        </CharString>
        <CharString name="dvE">
          53 130 callgsubr
          274 callsubr
          141 82 86 144 vhcurveto
          37 callgsubr
          -715 vlineto
          endchar
        </CharString>
        <CharString name="dvEcandra">
          53 130 callgsubr
          274 callsubr
          141 82 86 144 vhcurveto
          37 callgsubr
          -715 vlineto
          362 108 19 callsubr
        </CharString>
        <CharString name="dvEight">
          15 callgsubr
        </CharString>
        <CharString name="dvEyelash">
          -339 346 412 rmoveto
          -12 27 rlineto
          -3 -17 -20 -4 -34 hhcurveto
          -90 -103 36 115 -1 hvcurveto
          -38 hlineto
          -138 1 120 -46 105 hhcurveto
          37 35 6 7 17 hvcurveto
          -378 293 rmoveto
          353 35 -353 hlineto
          endchar
        </CharString>
        <CharString name="dvEyelash_HA">
          135 667 53 -81 callsubr
          -798 -35 610 167 callsubr
          -44 19 -31 27 -22 hvcurveto
          -5 -18 -21 -5 -26 hhcurveto
          -78 -88 37 112 hvcurveto
          -38 hlineto
          -134 1 105 -49 91 hhcurveto
          50 32 13 10 23 hvcurveto
          6 -2 6 -3 6 -2 rrcurveto
          117 callgsubr
        </CharString>
        <CharString name="dvEyelash_YA">
          293 509 164 rmoveto
          -84 callsubr
          263 372 callsubr
          151 35 -955 -35 490 -82 vlineto
          -138 -84 -34 -110 -1 vhcurveto
          -87 -107 35 115 hvcurveto
          -38 hlineto
          1 -128 107 -50 102 -5 rrcurveto
          -2 0 -2 -2 248 callgsubr
          210 callsubr
        </CharString>
        <CharString name="dvFive">
          61 callsubr
        </CharString>
        <CharString name="dvFour">
          161 callgsubr
        </CharString>
        <CharString name="dvG">
          -157 130 callgsubr
          328 -297 hlineto
          -57 -97 callgsubr
          296 136 35 -505 vlineto
          endchar
        </CharString>
        <CharString name="dvGA">
          107 545 hmoveto
          -75 callsubr
          -769 -35 328 -297 hlineto
          -57 -97 callgsubr
          296 208 vlineto
          endchar
        </CharString>
        <CharString name="dvGH">
          203 callgsubr
          157 108 107 144 vhcurveto
          169 callsubr
        </CharString>
        <CharString name="dvGHA">
          119 327 102 callgsubr
          92 hvcurveto
          92 260 callgsubr
          -359 558 rmoveto
          144 -93 hlineto
          206 callgsubr
          -30 callsubr
          -781 vlineto
          endchar
        </CharString>
        <CharString name="dvGH_MA">
          621 1059 448 64 callsubr
          -376 -546 -97 callsubr
          -375 -12 364 callsubr
          62 34 -60 288 callgsubr
          654 324 callgsubr
          -88 -66 -46 -78 -16 hvcurveto
          -7 -23 rlineto
          -112 -29 -71 -42 -108 hhcurveto
          943 558 rmoveto
          35 -1283 164 callgsubr
          88 -62 122 108 75 39 91 38 vhcurveto
          -72 17 59 -46 83 hhcurveto
          115 callgsubr
        </CharString>
        <CharString name="dvGH_NA">
          623 713 180 -103 callsubr
          -405 -33 364 callsubr
          46 34 -44 288 callgsubr
          910 251 callsubr
          -102 -75 -57 -93 -14 hvcurveto
          -1 1 -5 -22 rlineto
          -141 -33 -60 -50 -118 hhcurveto
          945 558 rmoveto
          35 -1285 164 callgsubr
          88 -62 121 112 79 43 119 36 vhcurveto
          -78 20 69 -51 94 43 callsubr
          hlineto
          endchar
        </CharString>
        <CharString name="dvGH_R">
          203 callgsubr
          29 27 4 6 25 vhcurveto
          -198 -178 rlineto
          47 hlineto
          246 226 rlineto
          56 45 33 68 80 vvcurveto
          169 callsubr
        </CharString>
        <CharString name="dvGH_RA">
          119 327 102 callgsubr
          93 hvcurveto
          91 260 callgsubr
          -359 558 rmoveto
          144 -93 hlineto
          48 callgsubr
          -120 94 -61 134 27 26 3 7 24 vhcurveto
          -198 -180 rlineto
          47 hlineto
          256 235 rlineto
          0 vlineto
          23 21 19 26 13 30 rrcurveto
          -256 -30 callsubr
          -781 vlineto
          endchar
        </CharString>
        <CharString name="dvGH_YA">
          606 327 102 callgsubr
          92 hvcurveto
          92 618 105 callgsubr
          -20 1 -19 3 -18 vhcurveto
          -123 -5 -99 -84 -127 hhcurveto
          494 17 14 callsubr
          -1267 164 callgsubr
          94 -62 140 124 93 66 99 34 vhcurveto
          -93 37 82 -55 118 hhcurveto
          111 callsubr
          vlineto
          endchar
        </CharString>
        <CharString name="dvG_BA">
          504 943 hmoveto
          39 -34 callgsubr
          -1166 -35 328 -297 hlineto
          -57 -97 callgsubr
          296 606 200 callgsubr
          -133 -106 -92 -147 154 callgsubr
          hvcurveto
          -204 -97 -45 callgsubr
          -2 412 rmoveto
          142 65 -110 -97 -43 -14 -50 -31 -39 hvcurveto
          -307 286 rlineto
          34 38 51 19 56 hhcurveto
          endchar
        </CharString>
        <CharString name="dvG_BHA">
          567 656 159 rmoveto
          -72 -54 82 callsubr
          81 hvcurveto
          111 -97 hlineto
          -101 -47 -57 -76 vhcurveto
          1 -35 197 callgsubr
          -21 -18 -3 -6 -16 vhcurveto
          -641 -35 328 -297 hlineto
          -57 -97 callgsubr
          296 285 vlineto
          5 13 15 262 callgsubr
          -112 vlineto
          -102 -73 -61 -101 -97 65 -65 100 hvcurveto
          endchar
        </CharString>
        <CharString name="dvG_BH_YA">
          1021 656 159 45 callsubr
          -640 -35 328 -297 hlineto
          -57 -97 callgsubr
          296 217 vlineto
          289 callsubr
          -14 2 -15 2 -14 vhcurveto
          40 hlineto
          -3 15 -1 14 13 vvcurveto
          62 27 41 42 17 vhcurveto
          1 0 hlineto
          5 13 14 3 16 hhcurveto
          79 35 -62 -98 hvcurveto
          -105 250 callsubr
          -61 -101 -97 66 -65 99 hvcurveto
          581 40 -3 callsubr
          endchar
        </CharString>
        <CharString name="dvG_DA">
          422 933 104 callgsubr
          -1084 -35 328 -297 hlineto
          -57 -97 callgsubr
          296 513 -127 -93 vlineto
          238 callsubr
        </CharString>
        <CharString name="dvG_DHA">
          511 717 110 rmoveto
          109 86 56 87 37 hvcurveto
          -253 -75 callsubr
          -192 191 callgsubr
          -96 -81 43 95 160 callsubr
          -21 384 callsubr
          vhcurveto
          -634 -35 328 -297 hlineto
          -57 -97 callgsubr
          296 207 vlineto
          -29 -28 -16 -40 -46 vvcurveto
          -7 callgsubr
          -113 93 -57 119 vhcurveto
          endchar
        </CharString>
        <CharString name="dvG_DH_VA">
          958 1437 160 callgsubr
          -638 -35 447 -256 vlineto
          -52 callgsubr
          -21 384 callsubr
          vhcurveto
          -634 -35 328 -297 hlineto
          -57 -97 callgsubr
          296 207 vlineto
          -29 -28 -16 -40 -46 vvcurveto
          -7 callgsubr
          86 callsubr
        </CharString>
        <CharString name="dvG_DH_YA">
          993 1209 164 rmoveto
          -144 333 callsubr
          240 callsubr
          128 89 62 callsubr
          -487 -55 -55 callsubr
          -21 384 callsubr
          vhcurveto
          -634 -35 328 -297 hlineto
          -57 -97 callgsubr
          296 207 vlineto
          -29 -28 -16 -40 -46 vvcurveto
          -7 callgsubr
          -114 94 -57 123 vhcurveto
          endchar
        </CharString>
        <CharString name="dvG_GA">
          527 965 hmoveto
          -75 callsubr
          -1189 -35 328 -297 hlineto
          -57 -97 callgsubr
          296 379 -297 vlineto
          -57 -97 callgsubr
          296 208 vlineto
          endchar
        </CharString>
        <CharString name="dvG_GHA">
          520 727 102 callgsubr
          92 hvcurveto
          92 260 callgsubr
          271 -147 -21 callgsubr
          -1181 -35 328 -297 vlineto
          -57 -97 callgsubr
          296 175 -93 vlineto
          206 callgsubr
          vlineto
          endchar
        </CharString>
        <CharString name="dvG_JA">
          634 1113 160 callgsubr
          -1296 -35 328 -297 vlineto
          -57 -97 callgsubr
          296 735 -199 -273 -169 vlineto
          -80 callgsubr
          233 -470 vlineto
          endchar
        </CharString>
        <CharString name="dvG_LA">
          712 1004 92 rmoveto
          -49 callsubr
          -1374 -35 328 -297 vlineto
          -57 -97 callgsubr
          296 688 -152 vlineto
          -106 -8 -44 -83 -12 -71 rrcurveto
          -86 callsubr
          -115 -63 -88 -126 -9 44 callsubr
          11 11 -1 11 hhcurveto
          endchar
        </CharString>
        <CharString name="dvG_MA">
          583 1021 448 64 callsubr
          -376 -546 -97 callsubr
          417 -159 -21 callgsubr
          -1245 -35 328 -297 vlineto
          -57 -97 callgsubr
          296 431 -17 callgsubr
          215 -414 vlineto
          endchar
        </CharString>
        <CharString name="dvG_NA">
          593 683 180 -103 callsubr
          389 341 callsubr
          -1255 -35 328 -297 vlineto
          -57 -97 callgsubr
          296 695 251 callsubr
          -89 callgsubr
          247 -474 hlineto
          endchar
        </CharString>
        <CharString name="dvG_NNA">
          658 693 241 rmoveto
          -50 callsubr
          443 -241 rmoveto
          -34 callgsubr
          -1320 -35 328 -297 vlineto
          -57 -97 callgsubr
          296 183 28 callsubr
          231 -705 vlineto
          endchar
        </CharString>
        <CharString name="dvG_N_YA">
          1060 682 140 rmoveto
          -40 callgsubr
          -1722 -35 328 -297 vlineto
          -57 -97 callgsubr
          296 888 219 callgsubr
          -343 93 callgsubr
          62 callgsubr
        </CharString>
        <CharString name="dvG_R">
          112 callsubr
          endchar
        </CharString>
        <CharString name="dvG_RA">
          103 callsubr
          endchar
        </CharString>
        <CharString name="dvG_R_YA">
          543 759 164 rmoveto
          -84 callsubr
          -6 -35 rmoveto
          111 callsubr
          151 35 -1205 -35 328 -253 vlineto
          -56 -97 callgsubr
          251 371 105 callgsubr
          -42 6 -38 11 -34 vhcurveto
          -319 -317 rlineto
          48 hlineto
          283 284 rlineto
          -85 40 79 -50 113 hhcurveto
          endchar
        </CharString>
        <CharString name="dvG_SA">
          615 824 600 -62 callgsubr
          -1277 -35 328 -297 vlineto
          -57 -97 callgsubr
          296 448 -105 vlineto
          31 callsubr
        </CharString>
        <CharString name="dvG_VA">
          493 730 41 callsubr
          159 callsubr
          -1155 -35 328 -297 vlineto
          -57 -97 callgsubr
          296 595 -28 callsubr
          -129 -102 327 callsubr
          98 -88 133 70 callsubr
        </CharString>
        <CharString name="dvG_YA">
          543 759 164 rmoveto
          -84 callsubr
          263 372 callsubr
          151 35 -1205 -35 328 -297 vlineto
          -57 -97 callgsubr
          296 371 -82 vlineto
          197 callsubr
          vlineto
          endchar
        </CharString>
        <CharString name="dvGx">
          -157 130 callgsubr
          328 -297 hlineto
          -57 -97 callgsubr
          296 136 35 -505 vlineto
          235 -653 rmoveto
          -104 callsubr
          endchar
        </CharString>
        <CharString name="dvGxA">
          107 545 hmoveto
          -75 callsubr
          -769 -35 328 -297 hlineto
          -57 -97 callgsubr
          296 208 vlineto
          -342 -618 rmoveto
          -104 callsubr
          endchar
        </CharString>
        <CharString name="dvGx_R">
          112 callsubr
          122 -652 -17 callsubr
          endchar
        </CharString>
        <CharString name="dvGx_RA">
          103 callsubr
          -456 -201 -17 callsubr
          endchar
        </CharString>
        <CharString name="dvH">
          -11 520 53 -81 callsubr
          -651 -35 463 -144 -160 hlineto
          -90 -73 -37 -89 -70 50 -39 47 -16 hvcurveto
          43 callgsubr
          -120 -430 -16 callsubr
          endchar
        </CharString>
        <CharString name="dvHA">
          -11 520 53 -81 callsubr
          -651 -35 463 -144 -160 hlineto
          -90 -73 -37 -89 -70 50 -39 47 -16 hvcurveto
          117 callgsubr
        </CharString>
        <CharString name="dvHA_mU">
          -11 343 -360 rmoveto
          122 74 56 92 94 -65 55 -136 -141 -73 82 97 96 61 84 122 128 46 -90 -74 hvcurveto
          39 hlineto
          91 -56 107 -156 251 callgsubr
          vhcurveto
          147 callsubr
          -116 85 -99 169 112 53 -41 -73 -73 -64 -41 -96 -109 -89 49 111 6 vhcurveto
          -36 hlineto
          -132 -6 103 -62 131 hhcurveto
          endchar
        </CharString>
        <CharString name="dvHA_mUU">
          -11 319 -353 rmoveto
          33 vlineto
          -2 -13 -13 -1 -11 hhcurveto
          -68 -48 43 65 71 53 47 90 110 83 -82 -141 hvcurveto
          -28 35 20 vlineto
          167 -93 98 -136 vhcurveto
          0 vlineto
          -122 -62 82 97 96 61 84 122 128 47 -90 -75 -1 hvcurveto
          39 hlineto
          92 1 -57 107 -156 hhcurveto
          -22 -20 -2 -4 -19 hvcurveto
          147 callsubr
          -88 45 -78 90 -31 vhcurveto
          -55 -23 -33 -48 -64 vvcurveto
          -89 64 -52 85 14 12 1 2 13 vhcurveto
          endchar
        </CharString>
        <CharString name="dvHA_mvR">
          65 377 -174 rmoveto
          32 vlineto
          -166 -93 111 136 118 67 111 177 111 64 -48 -71 21 hvcurveto
          1 -24 -32 1 -48 hhcurveto
          -92 -44 -51 -65 -78 67 -38 69 38 25 5 6 18 hvcurveto
          29 vlineto
          -8 -24 -26 -3 -25 hhcurveto
          -57 -53 27 60 50 34 40 71 hvcurveto
          137 hlineto
          97 -13 -77 76 -140 284 callgsubr
          296 176 128 35 -727 -35 563 -145 -268 295 callgsubr
          -151 102 -130 192 1 vhcurveto
          endchar
        </CharString>
        <CharString name="dvH_LA">
          93 370 -172 rmoveto
          31 vlineto
          -161 -91 111 135 118 67 112 177 110 66 -54 -68 20 hvcurveto
          -52 -8 -23 -41 -6 -36 rrcurveto
          -2 hlineto
          40 -7 -27 46 -63 hhcurveto
          -69 -39 -48 -70 -73 42 -54 84 7 6 0 1 5 hvcurveto
          26 vlineto
          -1 -5 -6 0 -5 hhcurveto
          -65 -34 42 58 54 29 40 52 53 29 -44 -68 hvcurveto
          -6 28 6 vlineto
          69 30 43 55 50 28 -41 -53 -58 -33 -42 -65 -6 -6 0 1 -5 vhcurveto
          -26 vlineto
          -1 6 6 0 7 hhcurveto
          84 41 54 73 65 -34 47 -60 6 hvcurveto
          85 -21 -75 65 -130 284 callgsubr
          305 176 147 35 -755 -35 572 -145 -277 295 callgsubr
          -150 100 -129 187 1 vhcurveto
          endchar
        </CharString>
        <CharString name="dvH_MA">
          605 148 430 rmoveto
          74 63 25 70 vhcurveto
          189 176 320 266 callgsubr
          hlineto
          -86 -65 -44 -74 -18 hvcurveto
          -200 339 callgsubr
          519 -271 196 callsubr
          -736 -804 rmoveto
          129 68 80 72 16 hvcurveto
          -39 hlineto
          -54 -15 -56 -63 -103 hhcurveto
          -122 -61 82 97 96 61 85 123 hvcurveto
          195 hlineto
          -3 0 -4 -3 vvcurveto
          -97 69 callsubr
          -1267 -35 463 332 callgsubr
          vlineto
          232 callsubr
        </CharString>
        <CharString name="dvH_NA">
          618 148 430 rmoveto
          74 63 25 70 vhcurveto
          189 176 572 -196 -346 hlineto
          -112 -79 -69 -110 -3 hvcurveto
          -194 339 callgsubr
          545 -250 -103 callsubr
          -386 -279 rmoveto
          129 68 80 72 16 hvcurveto
          -39 hlineto
          -54 -15 -56 -63 -103 hhcurveto
          -122 -61 82 97 96 61 85 123 hvcurveto
          196 hlineto
          -90 13 73 -61 102 43 callsubr
          151 35 -1265 -35 463 -144 -160 hlineto
          232 callsubr
        </CharString>
        <CharString name="dvH_NNA">
          53 356 30 rmoveto
          -50 -30 41 56 hvcurveto
          199 vlineto
          5 23 27 3 30 hhcurveto
          31 26 -4 -6 24 hvcurveto
          -197 vlineto
          -56 -29 -41 -52 vhcurveto
          -21 -170 rmoveto
          -138 6 -78 104 135 vvcurveto
          94 32 84 97 35 vhcurveto
          -188 vlineto
          -72 39 -52 68 71 39 52 72 vhcurveto
          184 vlineto
          81 -36 32 -79 -92 vvcurveto
          -142 32 142 vlineto
          140 -71 117 -184 -50 -42 -8 -14 -36 vhcurveto
          -46 17 -34 31 49 vvcurveto
          67 58 23 66 vhcurveto
          273 176 145 35 -721 -35 540 -145 -245 hlineto
          -87 -68 -34 -82 -62 44 -37 43 -18 hvcurveto
          -77 -45 -35 -81 339 callsubr
        </CharString>
        <CharString name="dvH_R">
          12 callsubr
          -118 -430 -16 callsubr
          endchar
        </CharString>
        <CharString name="dvH_RA">
          12 callsubr
          endchar
        </CharString>
        <CharString name="dvH_VA">
          45 429 -6 rmoveto
          -64 -47 41 71 69 52 41 59 hvcurveto
          80 -1 34 -60 -51 vvcurveto
          -1 vlineto
          -48 -34 -61 -80 vhcurveto
          -94 -166 rmoveto
          -1 32 rlineto
          -137 6 -78 104 135 vvcurveto
          122 76 106 150 111 73 -71 -90 12 vhcurveto
          -19 39 -38 31 -60 -1 -76 -1 -62 -51 1 -83 rrcurveto
          -85 1 57 -52 79 hhcurveto
          62 40 33 41 18 hvcurveto
          -120 31 217 vlineto
          121 -82 103 -151 -43 -38 -8 -14 -33 vhcurveto
          -46 16 -35 31 50 vvcurveto
          67 58 23 66 vhcurveto
          239 176 145 35 -687 -35 506 -145 -211 hlineto
          -87 -68 -34 -82 -64 45 -36 44 -18 hvcurveto
          -73 -45 -41 -80 339 callsubr
        </CharString>
        <CharString name="dvH_YA">
          283 539 -71 rmoveto
          -101 -66 64 93 hvcurveto
          5 0 6 5 vvcurveto
          99 2 73 33 90 vvcurveto
          101 -91 36 -95 -48 -43 -9 -16 -36 vhcurveto
          -49 18 -36 32 50 vvcurveto
          67 59 23 65 vhcurveto
          226 176 228 -542 hlineto
          -134 -63 -100 -122 vhcurveto
          185 -72 rmoveto
          37 848 152 35 -945 -35 492 -145 -198 hlineto
          -86 -69 -34 -82 -64 47 -38 47 -19 hvcurveto
          -77 -49 -41 -87 -104 vvcurveto
          -165 105 -138 197 -6 vhcurveto
          32 vlineto
          -171 7 -94 118 151 vvcurveto
          138 80 112 158 70 79 -25 -82 -72 -58 -28 -99 vhcurveto
          -11 hlineto
          -1 -12 -1 -11 -12 vvcurveto
          -107 68 -85 128 97 64 53 81 30 vhcurveto
          endchar
        </CharString>
        <CharString name="dvI">
          -17 -45 705 rmoveto
          468 343 callgsubr
          109 callsubr
          178 hlineto
          72 callgsubr
          -672 hlineto
          endchar
        </CharString>
        <CharString name="dvII">
          -17 142 106 rmoveto
          72 callgsubr
          -165 79 230 callgsubr
          -80 -468 -35 468 347 callgsubr
          vlineto
          109 callsubr
          hlineto
          endchar
        </CharString>
        <CharString name="dvII_Anusvara">
          -17 142 106 rmoveto
          72 callgsubr
          -165 81 hlineto
          96 39 52 77 68 42 -50 -63 vhcurveto
          35 hlineto
          86 -55 60 -90 -100 -54 -67 -113 vhcurveto
          -82 -469 -35 468 347 callgsubr
          vlineto
          109 callsubr
          hlineto
          435 882 20 callgsubr
        </CharString>
        <CharString name="dvJ">
          115 callsubr
          endchar
        </CharString>
        <CharString name="dvJA">
          231 130 callgsubr
          701 224 callsubr
          hlineto
          -80 callgsubr
          233 -470 -75 callsubr
          -893 vlineto
          endchar
        </CharString>
        <CharString name="dvJH">
          -24 149 103 rmoveto
          8 callgsubr
          242 -1 rlineto
          32 -407 vlineto
          10 callsubr
          217 35 -711 -35 455 343 callgsubr
          25 callsubr
        </CharString>
        <CharString name="dvJHA">
          239 272 317 rmoveto
          10 callsubr
          216 -388 hlineto
          -317 vmoveto
          -30 callsubr
          -901 -35 455 343 callgsubr
          6 callgsubr
          176 hlineto
          8 callgsubr
          241 -1 rlineto
          endchar
        </CharString>
        <CharString name="dvJH_MA">
          738 1176 448 64 callsubr
          -376 -546 -97 callsubr
          -528 158 rmoveto
          10 callsubr
          461 266 callgsubr
          hlineto
          -91 -67 -49 -82 -14 hvcurveto
          -489 -214 rmoveto
          8 callgsubr
          199 -1 rlineto
          -96 69 callsubr
          -1400 -35 455 347 callgsubr
          vlineto
          25 callsubr
        </CharString>
        <CharString name="dvJH_NA">
          729 272 317 rmoveto
          10 callsubr
          705 -196 -346 hlineto
          -114 332 callsubr
          hvcurveto
          -3 384 callgsubr
          191 -137 -103 callsubr
          -669 -77 rmoveto
          8 callgsubr
          194 -1 rlineto
          -84 17 71 -56 98 43 callsubr
          151 35 -1390 -35 455 343 callgsubr
          25 callsubr
        </CharString>
        <CharString name="dvJH_R">
          -24 149 103 rmoveto
          8 callgsubr
          251 -1 rlineto
          32 -416 vlineto
          10 callsubr
          226 35 -720 -35 455 343 callgsubr
          194 callsubr
          539 206 rmoveto
          49 vlineto
          -206 -284 rlineto
          43 hlineto
          endchar
        </CharString>
        <CharString name="dvJH_RA">
          287 272 317 rmoveto
          10 callsubr
          263 -388 hlineto
          1 -317 rmoveto
          39 -98 callgsubr
          -948 -35 455 343 callgsubr
          6 callgsubr
          176 hlineto
          8 callgsubr
          288 -1 rlineto
          -41 vlineto
          1 -6 -244 -340 rlineto
          43 hlineto
          201 286 rlineto
          endchar
        </CharString>
        <CharString name="dvJH_YA">
          690 272 317 rmoveto
          10 callsubr
          393 198 callsubr
          -34 4 -31 7 -29 vhcurveto
          256 -153 rmoveto
          -84 callsubr
          -757 -61 rmoveto
          8 callgsubr
          223 -1 rlineto
          -97 36 82 -59 122 hhcurveto
          111 callsubr
          151 35 -1352 -35 455 347 callgsubr
          vlineto
          25 callsubr
        </CharString>
        <CharString name="dvJ_BA">
          633 868 142 -45 callgsubr
          204 -142 rmoveto
          39 -34 callgsubr
          -1295 -35 1104 297 callgsubr
          -73 -66 -28 -50 -43 hvcurveto
          -282 -169 hlineto
          -80 callgsubr
          216 vlineto
          -20 -35 -11 -42 -48 215 callgsubr
          -206 315 rmoveto
          142 65 -110 -97 -43 -14 -50 -31 -39 hvcurveto
          -307 286 rlineto
          34 38 51 19 56 hhcurveto
          endchar
        </CharString>
        <CharString name="dvJ_DA">
          562 1073 104 callgsubr
          -1224 -35 1022 -127 -93 hlineto
          -80 -74 -23 -49 -49 hvcurveto
          -298 -169 hlineto
          -80 callgsubr
          229 vlineto
          -21 -33 -12 -42 -50 vvcurveto
          153 callgsubr
        </CharString>
        <CharString name="dvJ_DDA">
          501 840 -11 rmoveto
          -56 callgsubr
          165 179 155 35 -1163 -35 969 333 callgsubr
          hlineto
          -56 -60 -13 -38 -34 hvcurveto
          -252 -169 hlineto
          -80 callgsubr
          190 vlineto
          -5 -14 -3 -16 -18 vvcurveto
          -99 81 -37 90 vhcurveto
          16 callgsubr
        </CharString>
        <CharString name="dvJ_JA">
          801 1280 160 callgsubr
          -1463 -35 1271 -199 -273 -169 vlineto
          -25 callgsubr
          -303 -169 vlineto
          -80 callgsubr
          223 -133 165 callsubr
          233 -470 vlineto
          endchar
        </CharString>
        <CharString name="dvJ_JHA">
          785 818 317 rmoveto
          10 callsubr
          216 -388 hlineto
          -317 vmoveto
          -30 callsubr
          -1447 -35 1001 343 callgsubr
          -56 -61 -13 -39 -35 hvcurveto
          -275 -169 hlineto
          -80 callgsubr
          213 vlineto
          -5 -14 -3 -16 -19 vvcurveto
          346 callsubr
          vhcurveto
          -13 callsubr
          176 hlineto
          8 callgsubr
          241 -1 rlineto
          endchar
        </CharString>
        <CharString name="dvJ_J_NYA">
          710 1148 319 callsubr
          -1372 -35 1180 -200 -752 -168 hlineto
          -38 callsubr
          168 -40 -168 63 callsubr
          134 339 vlineto
          118 88 -64 -114 -93 -61 -70 -100 -86 -84 52 104 -11 hvcurveto
          -38 -265 40 183 hlineto
          -54 23 66 -55 99 hhcurveto
          113 76 78 113 95 -53 62 -74 28 hvcurveto
          257 hlineto
          endchar
        </CharString>
        <CharString name="dvJ_J_VA">
          1195 1432 41 callsubr
          159 callsubr
          -1857 -35 1666 -28 callsubr
          -70 -62 -26 -47 -43 hvcurveto
          -284 -169 hlineto
          -25 callgsubr
          -303 -169 vlineto
          -80 callgsubr
          223 -133 165 callsubr
          218 vlineto
          -19 -34 -11 -40 -46 vvcurveto
          -147 -43 callgsubr
        </CharString>
        <CharString name="dvJ_J_YA">
          1259 1475 164 150 callgsubr
          -1921 -35 1456 -82 vlineto
          -121 -85 -30 -113 vhcurveto
          -260 -135 hlineto
          -38 callsubr
          135 -303 -135 vlineto
          -38 callsubr
          135 -40 -135 63 callsubr
          100 223 -100 1 callgsubr
          111 66 208 callsubr
          100 186 vlineto
          6 5 0 4 hhcurveto
          277 callsubr
          -184 94 -119 137 callgsubr
          endchar
        </CharString>
        <CharString name="dvJ_KA">
          963 1042 hmoveto
          -104 callgsubr
          -1626 -35 1074 -257 vlineto
          -53 callgsubr
          -66 -58 -25 -44 -39 hvcurveto
          -289 -169 hlineto
          -80 callgsubr
          223 vlineto
          -18 -33 -11 -41 -47 vvcurveto
          162 callgsubr
        </CharString>
        <CharString name="dvJ_MA">
          712 1150 487 rmoveto
          -215 218 215 hlineto
          -376 -507 355 callgsubr
          -114 hlineto
          -89 -47 -51 -76 vhcurveto
          417 -198 -21 callgsubr
          -1374 -35 929 -218 -501 -150 vlineto
          -38 callsubr
          150 -40 -150 63 callsubr
          116 241 vlineto
          -42 -27 -25 -44 -59 vvcurveto
          -95 65 -66 99 100 61 63 115 vhcurveto
          112 215 -452 vlineto
          endchar
        </CharString>
        <CharString name="dvJ_NA">
          716 803 177 rmoveto
          -91 141 callgsubr
          64 59 89 88 62 -60 -86 -86 -62 -61 -88 hvcurveto
          390 -177 -21 callgsubr
          -1376 -35 1184 -199 -756 -169 vlineto
          -80 callgsubr
          248 vlineto
          -45 -32 -27 -51 -65 vvcurveto
          -106 78 -74 113 374 callgsubr
          -36 53 -46 26 vhcurveto
          246 -471 hlineto
          endchar
        </CharString>
        <CharString name="dvJ_NY">
          -70 130 callgsubr
          731 35 -731 hlineto
          275 -236 rmoveto
          8 46 callgsubr
          333 34 -456 hlineto
          endchar
        </CharString>
        <CharString name="dvJ_NYA">
          186 625 hmoveto
          39 -34 callgsubr
          -848 -35 657 -167 -382 -34 8 46 callgsubr
          259 hlineto
          endchar
        </CharString>
        <CharString name="dvJ_NY_YA">
          704 920 373 callsubr
          -71 92 152 -13 hvcurveto
          -1 11 rlineto
          129 2 88 51 146 vvcurveto
          152 callsubr
          -1366 -35 901 -82 vlineto
          -135 -81 -36 -107 -2 vhcurveto
          49 -21 -51 39 -86 hhcurveto
          -281 -34 9 46 callgsubr
          157 hlineto
          73 47 -39 -51 11 hvcurveto
          -3 vlineto
          -171 11 82 -111 166 hhcurveto
          123 367 callsubr
          vlineto
          endchar
        </CharString>
        <CharString name="dvJ_R">
          88 callsubr
          endchar
        </CharString>
        <CharString name="dvJ_RA">
          76 callgsubr
          endchar
        </CharString>
        <CharString name="dvJ_TA">
          640 1119 160 callgsubr
          -1302 -35 1111 -204 -683 -164 vlineto
          -38 callsubr
          164 -40 -164 63 callsubr
          128 326 vlineto
          -81 -35 -48 -69 -112 vvcurveto
          -158 99 -89 160 vhcurveto
          27 322 callsubr
          78 137 147 97 205 callsubr
          160 -465 hlineto
          endchar
        </CharString>
        <CharString name="dvJ_TTA">
          601 886 56 rmoveto
          222 callsubr
          -88 callsubr
          -1263 -35 987 -139 -41 hlineto
          -79 -70 -20 -40 -51 hvcurveto
          -318 -169 hlineto
          -80 callgsubr
          241 vlineto
          -32 -41 -19 -55 -69 367 callgsubr
        </CharString>
        <CharString name="dvJ_VA">
          625 862 41 callsubr
          159 callsubr
          -1287 -35 1096 -28 callsubr
          -70 -62 -26 -47 -43 hvcurveto
          -284 -169 hlineto
          -80 callgsubr
          218 vlineto
          -19 -34 -11 -40 -46 vvcurveto
          -147 -43 callgsubr
        </CharString>
        <CharString name="dvJ_YA">
          -4 callgsubr
          endchar
        </CharString>
        <CharString name="dvJx">
          115 callsubr
          297 -754 rmoveto
          -104 callsubr
          endchar
        </CharString>
        <CharString name="dvJxA">
          231 130 callgsubr
          701 224 callsubr
          hlineto
          -80 callgsubr
          233 -470 -75 callsubr
          -893 vlineto
          297 -754 rmoveto
          -104 callsubr
          endchar
        </CharString>
        <CharString name="dvJx_JxA">
          801 265 181 callgsubr
          570 hmoveto
          -104 callsubr
          445 14 -21 callgsubr
          -1463 -35 1271 -199 -273 -169 vlineto
          -25 callgsubr
          -303 -169 vlineto
          -80 callgsubr
          223 -133 165 callsubr
          233 -470 vlineto
          endchar
        </CharString>
        <CharString name="dvJx_R">
          88 callsubr
          -120 -199 -17 callsubr
          endchar
        </CharString>
        <CharString name="dvJx_RA">
          76 callgsubr
          171 -720 -17 callsubr
          endchar
        </CharString>
        <CharString name="dvJx_YA">
          -4 callgsubr
          -862 181 callgsubr
          endchar
        </CharString>
        <CharString name="dvK">
          5 callsubr
          -90 callgsubr
          hvcurveto
          -186 -93 -107 callgsubr
          endchar
        </CharString>
        <CharString name="dvKA">
          414 492 hmoveto
          -104 callgsubr
          -1076 278 callgsubr
          vlineto
          -103 callgsubr
          -186 -93 -107 callgsubr
          endchar
        </CharString>
        <CharString name="dvKH">
          79 130 callgsubr
          314 -147 hlineto
          -79 callgsubr
          17 -2 18 -29 callgsubr
          458 -386 94 callgsubr
          endchar
        </CharString>
        <CharString name="dvKHA">
          41 callgsubr
          -262 -116 -42 callsubr
          endchar
        </CharString>
        <CharString name="dvKH_KHA">
          995 1269 184 rmoveto
          -93 221 callgsubr
          90 118 46 -92 -78 hvcurveto
          -1 vlineto
          -75 -47 -95 -117 vhcurveto
          -843 170 94 callgsubr
          1007 -354 223 callsubr
          -1657 -35 314 -147 hlineto
          -79 callgsubr
          17 -2 18 hhcurveto
          77 62 30 54 34 hvcurveto
          -11 267 callgsubr
          90 54 49 59 25 hvcurveto
          -1107 -224 rmoveto
          -83 callsubr
          635 -150 vlineto
          -135 -74 -27 -72 vhcurveto
          -9 hlineto
          102 -16 -78 63 -111 hhcurveto
          136 callgsubr
          675 hmoveto
          350 callgsubr
          83 38 152 hvcurveto
          151 436 301 callgsubr
          49 -68 73 -27 hvcurveto
          -69 -27 -60 -61 -97 hhcurveto
          endchar
        </CharString>
        <CharString name="dvKH_MA">
          865 1303 448 342 callsubr
          -877 -351 94 callgsubr
          501 -195 -26 callsubr
        </CharString>
        <CharString name="dvKH_NA">
          870 960 180 rmoveto
          -92 -61 60 85 89 63 366 callgsubr
          -363 5 -64 callsubr
          987 251 callsubr
          -77 -61 -32 -56 -31 hvcurveto
          86 -24 -73 51 -101 272 callgsubr
          271 116 rmoveto
          87 67 39 67 32 hvcurveto
          -68 25 65 -44 88 hhcurveto
          107 76 96 callsubr
          255 callgsubr
          -30 callsubr
          -1532 -35 314 -147 hlineto
          -79 callgsubr
          17 -2 18 hhcurveto
          endchar
        </CharString>
        <CharString name="dvKH_R">
          79 130 callgsubr
          3 callsubr
          26 39 15 41 rlinecurve
          -3 17 17 -2 19 -29 callgsubr
          629 -555 rmoveto
          -103 -68 67 102 104 68 67 103 104 69 -67 -104 -102 -69 -67 -104 hvcurveto
          endchar
        </CharString>
        <CharString name="dvKH_RA">
          21 callgsubr
          -268 -149 -42 callsubr
          endchar
        </CharString>
        <CharString name="dvKH_SHA">
          856 597 185 -47 callgsubr
        </CharString>
        <CharString name="dvKH_TA">
          765 597 185 -32 callgsubr
        </CharString>
        <CharString name="dvKH_VA">
          768 1206 hmoveto
          24 callsubr
          -408 36 -64 callsubr
          884 298 callgsubr
          -98 -81 -51 -86 -33 hvcurveto
          73 -29 -68 43 -93 272 callgsubr
          endchar
        </CharString>
        <CharString name="dvKH_YA">
          818 597 185 -37 callgsubr
        </CharString>
        <CharString name="dvKHx">
          79 130 callgsubr
          314 -147 hlineto
          -79 callgsubr
          17 -2 18 -29 callgsubr
          343 -904 rmoveto
          -104 callsubr
          115 518 94 callgsubr
          endchar
        </CharString>
        <CharString name="dvKHxA">
          41 callgsubr
          -277 -315 rmoveto
          -104 callsubr
          15 199 -42 callsubr
          endchar
        </CharString>
        <CharString name="dvKHx_MA">
          865 311 -164 rmoveto
          -104 callsubr
          115 518 94 callgsubr
          877 94 342 callsubr
          -376 -546 -26 callsubr
        </CharString>
        <CharString name="dvKHx_R">
          79 130 callgsubr
          3 callsubr
          26 39 15 41 rlinecurve
          -3 17 17 -2 19 -29 callgsubr
          136 -838 -17 callsubr
          493 283 rmoveto
          -103 -68 67 102 104 68 67 103 104 69 -67 -104 -102 -69 -67 -104 hvcurveto
          endchar
        </CharString>
        <CharString name="dvKHx_RA">
          21 callgsubr
          -490 -282 -17 callsubr
          222 133 -42 callsubr
          endchar
        </CharString>
        <CharString name="dvKHx_SA">
          892 315 -165 rmoveto
          -104 callsubr
          282 350 -64 callsubr
          740 -105 vlineto
          -53 callsubr
          -76 hlineto
          93 -21 -76 55 -105 hhcurveto
          -125 -83 -78 -126 -92 47 -68 75 -28 hvcurveto
          -70 -26 -61 -61 -97 hhcurveto
          776 565 rmoveto
          105 228 -293 -326 221 callsubr
          39 -412 rmoveto
          13 -39 -12 vlineto
          -97 -56 -65 -90 -99 -47 74 103 vhcurveto
          174 520 -378 -75 callsubr
          -1554 -35 314 -147 vlineto
          -79 callgsubr
          16 -2 18 hhcurveto
          78 62 31 54 34 hvcurveto
          -30 vlineto
          252 callgsubr
          125 224 callgsubr
          endchar
        </CharString>
        <CharString name="dvKHx_SHA">
          856 315 -165 rmoveto
          -104 callsubr
          282 350 -47 callgsubr
        </CharString>
        <CharString name="dvKHx_TA">
          765 315 -165 rmoveto
          -104 callsubr
          282 350 -32 callgsubr
        </CharString>
        <CharString name="dvKHx_VA">
          768 315 -165 rmoveto
          -104 callsubr
          282 350 rmoveto
          -103 -68 67 102 104 68 67 103 104 69 -67 -104 -102 -69 -67 -104 hvcurveto
          609 -185 rmoveto
          24 callsubr
          -679 -114 rmoveto
          -83 callsubr
          884 298 callgsubr
          -98 -81 -51 -86 -33 hvcurveto
          73 -29 -68 43 -93 272 callgsubr
          endchar
        </CharString>
        <CharString name="dvKHx_YA">
          818 315 -165 rmoveto
          -104 callsubr
          282 350 -37 callgsubr
        </CharString>
        <CharString name="dvK_CA">
          798 1041 145 rmoveto
          -99 -86 63 117 107 73 83 120 hvcurveto
          31 34 -347 hlineto
          -114 -63 -53 -68 -26 hvcurveto
          277 706 -366 vlineto
          344 callgsubr
          vhcurveto
          -735 7 72 callsubr
          175 rmoveto
          91 51 97 144 vhcurveto
          219 hlineto
          -80 -31 -47 -73 -92 vvcurveto
          -136 99 -73 297 callsubr
          -11 callsubr
          -1460 -89 callsubr
          endchar
        </CharString>
        <CharString name="dvK_DA">
          804 190 callgsubr
          702 -127 -93 vlineto
          -107 -95 -41 -87 -41 hvcurveto
          79 -31 -68 46 -86 hhcurveto
          -405 -423 -107 callgsubr
          1009 -158 -13 callgsubr
          -1466 -4 callsubr
          -118 vhcurveto
          0 vlineto
          -1 0 -1 -2 vvcurveto
          -138 87 -89 137 83 69 41 58 26 vhcurveto
          -223 vlineto
          endchar
        </CharString>
        <CharString name="dvK_JA">
          1016 306 152 -107 callgsubr
          739 33 328 callsubr
          -102 -55 -56 -69 -24 vhcurveto
          255 233 callsubr
          -515 156 91 callsubr
          -11 callsubr
          -1678 -89 callsubr
          endchar
        </CharString>
        <CharString name="dvK_KA">
          1208 306 152 -107 callgsubr
          980 351 callgsubr
          -89 -74 -45 -77 -34 hvcurveto
          77 -32 -67 45 -85 hhcurveto
          129 callsubr
          255 vlineto
          756 -705 rmoveto
          -104 callgsubr
          -1870 36 callsubr
          -118 162 callgsubr
        </CharString>
        <CharString name="dvK_KHA">
          1099 915 396 rmoveto
          -6 hlineto
          110 -17 -77 68 -104 hhcurveto
          129 callsubr
          256 531 -147 vlineto
          -135 -74 -27 -72 vhcurveto
          -609 -244 -107 callgsubr
          1231 -152 223 callsubr
          -1761 -4 callsubr
          -118 vhcurveto
          -127 vlineto
          -138 91 -85 139 115 73 73 83 32 vhcurveto
          371 callgsubr
          54 49 59 25 hvcurveto
          -163 -75 rmoveto
          -94 221 callgsubr
          91 117 46 -92 -78 hvcurveto
          -1 vlineto
          -75 -47 -95 -116 vhcurveto
          -269 -149 rmoveto
          350 callgsubr
          84 38 152 hvcurveto
          151 435 301 callgsubr
          50 -67 72 -28 hvcurveto
          -69 -27 -60 -61 -97 hhcurveto
          endchar
        </CharString>
        <CharString name="dvK_LA">
          1093 1244 391 rmoveto
          190 callsubr
          -84 -61 -42 -68 -30 hvcurveto
          82 -29 -69 48 -86 hhcurveto
          129 callsubr
          256 876 40 callgsubr
          -938 -239 206 callsubr
          42 305 callsubr
          96 72 -70 -114 3 vhcurveto
          -1 -8 0 -8 -9 vvcurveto
          -33 callgsubr
          vhcurveto
          -87 callgsubr
          -49 callsubr
          -1755 -89 callsubr
          endchar
        </CharString>
        <CharString name="dvK_MA">
          962 194 callgsubr
          126 callgsubr
          718 7 196 callsubr
          -870 -364 235 callgsubr
          -9 -20 -5 -24 -26 vvcurveto
          -97 69 callsubr
          -1624 -89 callsubr
          endchar
        </CharString>
        <CharString name="dvK_NA">
          974 190 callgsubr
          882 251 callsubr
          -74 -59 -30 -51 -33 hvcurveto
          93 -25 -70 54 -94 hhcurveto
          352 -395 -103 callsubr
          -757 -28 206 callsubr
          42 305 callsubr
          96 72 -70 -116 3 vhcurveto
          -1 -9 -1 -10 -10 vvcurveto
          36 callgsubr
          -30 callsubr
          -1635 77 callgsubr
        </CharString>
        <CharString name="dvK_NNA">
          1009 530 705 rmoveto
          341 -215 hlineto
          52 -35 -56 31 -70 hhcurveto
          -101 -55 -56 -68 -24 hvcurveto
          -224 -297 -107 callgsubr
          738 89 rmoveto
          -50 callsubr
          -514 100 rmoveto
          91 42 305 callsubr
          86 67 -57 -88 15 vhcurveto
          -2 vlineto
          231 callgsubr
          -1671 -89 callsubr
          endchar
        </CharString>
        <CharString name="dvK_PA">
          787 530 705 rmoveto
          308 -196 hlineto
          42 -32 -48 23 -56 hhcurveto
          -96 -53 -55 -67 -23 hvcurveto
          -224 -300 -107 callgsubr
          748 102 rmoveto
          -78 callsubr
          -524 87 rmoveto
          91 40 108 124 74 57 -52 -85 16 vhcurveto
          1 hlineto
          -114 16 68 -70 121 310 callgsubr
          -1449 -89 callsubr
          endchar
        </CharString>
        <CharString name="dvK_PHA">
          229 callgsubr
          -224 -298 -107 callgsubr
          763 102 -93 callgsubr
          -539 287 callsubr
          78 63 -47 -78 21 vhcurveto
          -122 12 66 -74 119 -79 callsubr
          -1818 -89 callsubr
          endchar
        </CharString>
        <CharString name="dvK_P_RA">
          787 530 705 rmoveto
          308 -196 hlineto
          42 -32 -48 23 -56 hhcurveto
          -96 -53 -55 -67 -23 hvcurveto
          -224 -300 -107 callgsubr
          748 102 rmoveto
          -78 callsubr
          171 218 callgsubr
          -1449 278 callgsubr
          hlineto
          -35 callsubr
          40 108 124 73 57 -51 -83 17 vhcurveto
          -116 16 68 -70 122 hhcurveto
          17 16 2 3 15 hvcurveto
          268 callgsubr
        </CharString>
        <CharString name="dvK_R">
          5 callsubr
          363 callgsubr
          hvcurveto
          93 callsubr
          -186 -95 -6 callgsubr
        </CharString>
        <CharString name="dvK_RA">
          414 492 hmoveto
          -104 callgsubr
          -1076 278 callgsubr
          vlineto
          349 callsubr
          363 callgsubr
          hvcurveto
          93 callsubr
          -186 -95 -6 callgsubr
        </CharString>
        <CharString name="dvK_SA">
          996 -68 callsubr
          229 -293 -327 221 callsubr
          40 -412 rmoveto
          -102 callsubr
          520 -378 40 705 152 35 -1658 -35 524 -257 vlineto
          -32 callsubr
        </CharString>
        <CharString name="dvK_SHA">
          963 306 152 -107 callgsubr
          405 422 276 callsubr
          256 487 vlineto
          5 17 380 callgsubr
          -87 -59 -117 hvcurveto
          -113 hlineto
          123 -9 -80 77 -111 hhcurveto
          360 -583 rmoveto
          115 71 78 122 hvcurveto
          12 -39 -12 vlineto
          -98 -57 -66 -91 -106 -50 51 callsubr
          134 101 71 136 129 -79 74 -117 -23 -21 -3 -6 -18 hvcurveto
          -1043 -4 callsubr
          -118 vhcurveto
          -140 vlineto
          -130 66 -88 131 vhcurveto
          330 9 223 callsubr
          -192 hlineto
          endchar
        </CharString>
        <CharString name="dvK_SS">
          -86 142 581 -72 callsubr
          293 32 -246 hlineto
          51 37 39 46 74 -27 callsubr
          endchar
        </CharString>
        <CharString name="dvK_SSA">
          168 142 581 -72 callsubr
          283 -397 341 callgsubr
          -311 -236 hlineto
          51 37 39 46 74 -27 callsubr
          endchar
        </CharString>
        <CharString name="dvK_SS_MA">
          664 726 140 176 callgsubr
          -100 -47 -58 -76 vhcurveto
          -584 441 -72 callsubr
          301 hlineto
          -40 -28 -23 -44 -58 vvcurveto
          -96 65 -66 120 callsubr
          vhcurveto
          95 215 -396 -75 callsubr
          -732 -35 287 -275 -478 vlineto
          51 37 39 46 74 -27 callsubr
          709 311 rmoveto
          -215 275 215 hlineto
          endchar
        </CharString>
        <CharString name="dvK_SS_M_YA">
          1131 727 139 269 callsubr
          -585 442 -72 callsubr
          303 hlineto
          -41 -28 -24 -45 -58 vvcurveto
          -97 66 -65 99 100 61 66 129 vhcurveto
          94 191 vlineto
          -3 305 callgsubr
          -171 94 -111 167 122 77 64 68 30 vhcurveto
          -234 -11 callsubr
          -1199 -35 287 -277 -479 vlineto
          51 37 40 46 75 -27 callsubr
          711 310 rmoveto
          -216 277 407 -109 hlineto
          -135 -84 -33 -107 vhcurveto
          243 -291 344 callsubr
          92 153 4 0 4 1 6 hvcurveto
          124 92 375 callsubr
          113 234 -363 vlineto
          -123 -102 -82 -120 vhcurveto
          endchar
        </CharString>
</ttFont>
